<svg width="1830" height="1830" viewBox="0 0 1830 1830" fill="none" xmlns="http://www.w3.org/2000/svg">
<path d="M915 1830C1420.34 1830 1830 1420.34 1830 915C1830 409.659 1420.34 0 915 0C409.659 0 0 409.659 0 915C0 1420.34 409.659 1830 915 1830Z" fill="#F2E6DC"/>
<path d="M1818.75 1829.54H535.276H352.602C668.047 1234.81 1231.48 4.80591 1238.62 4.80591L1828.48 1.4939L1818.75 1829.54Z" fill="#E6D0BE"/>
<path d="M1311.01 1546.15C1297.9 1647.7 1285.82 1743.5 1275.35 1829.26H1078.2L1140.62 1546.15H1311.01Z" fill="#F7F1EB"/>
<path d="M1227.35 1152.77H1362.74C1349.91 1248.88 1337.23 1344.55 1325.17 1436.96H1164.68L1227.35 1152.77Z" fill="#F7F1EB"/>
<path d="M1297.44 834.823H1405.62C1394.89 913.695 1383.94 994.567 1373.07 1075.72H1244.34L1297.44 834.823Z" fill="#F7F1EB"/>
<path d="M1350.87 592.453H1438.71C1430.46 652.553 1421.88 715.269 1413.12 779.647H1309.61L1350.87 592.453Z" fill="#F7F1EB"/>
<path d="M1466.84 388.426C1459.75 439.664 1452.17 494.563 1444.25 552.171H1359.76L1395.85 388.426H1466.84Z" fill="#F7F1EB"/>
<path d="M1429.1 237.606H1487.77C1483.45 268.625 1478.79 302.137 1473.87 337.773H1407.02L1429.1 237.606Z" fill="#F7F1EB"/>
<path d="M1458.87 102.573H1506.59C1502.83 129.5 1498.38 161.319 1493.37 197.324H1437.99L1458.87 102.573Z" fill="#F7F1EB"/>
<path d="M1520.58 2.80588C1520.58 2.80588 1517.08 27.7019 1510.84 72.2299H1465.57L1480.89 2.71289L1520.58 2.80588Z" fill="#F7F1EB"/>
<path opacity="0.56" d="M838.871 351.178H680.596L741.226 55.1021H778.241L838.871 351.178Z" fill="white"/>
<path d="M790.378 114.368L778.241 55.1021H741.226L729.089 114.368H790.378Z" fill="#E2A18D"/>
<path d="M704.814 232.914H814.653L802.517 173.648H716.95L704.814 232.914Z" fill="#E2A18D"/>
<path d="M692.675 292.193L680.596 351.178H838.871L826.792 292.193H692.675Z" fill="#E2A18D"/>
<path d="M841.573 353.383H677.893L739.426 52.897H780.041L780.401 54.66L841.573 353.383ZM683.298 348.973H836.169L776.441 57.306H743.026L683.298 348.973Z" fill="#363E44"/>
<path d="M798.81 322.993C797.705 322.993 796.754 322.166 796.622 321.042L768.3 77.5311C768.16 76.3231 769.026 75.2271 770.236 75.0871C771.457 74.9471 772.54 75.8151 772.68 77.0231L801.003 320.535C801.143 321.743 800.277 322.839 799.067 322.979C798.98 322.989 798.894 322.993 798.81 322.993Z" fill="white"/>
<path d="M868.005 351.46H651.462V383.04H868.005V351.46Z" fill="#E2A18D"/>
<path d="M870.21 385.243H649.257V349.255H870.211V385.243H870.21ZM653.667 380.833H865.801V353.665H653.667V380.833Z" fill="#363E44"/>
<path d="M979.574 1762.09L1258.11 1762.29L1151.8 1241.19L1086.67 1241.14L979.574 1762.09Z" fill="white"/>
<path d="M1065.23 1345.42L1086.67 1241.14L1151.8 1241.19L1173.08 1345.5L1065.23 1345.42Z" fill="#D87355"/>
<path d="M1215.65 1554.15L1022.35 1554L1043.79 1449.72L1194.37 1449.84L1215.65 1554.15Z" fill="#D87355"/>
<path d="M1236.93 1658.48L1258.1 1762.29L979.574 1762.08L1000.91 1658.3L1236.93 1658.48Z" fill="#D87355"/>
<path d="M1260.81 1764.5L976.871 1764.29L977.416 1761.64L1084.87 1238.94L1153.61 1238.99L1260.81 1764.5ZM982.279 1759.88L1255.41 1760.09L1150 1243.4L1088.46 1243.35L982.279 1759.88Z" fill="#363E44"/>
<path d="M1050.11 1710.87C1050.03 1710.87 1049.94 1710.86 1049.85 1710.85C1048.64 1710.71 1047.78 1709.61 1047.92 1708.4L1098.09 1279.92C1098.23 1278.72 1099.31 1277.84 1100.53 1277.99C1101.74 1278.13 1102.61 1279.23 1102.46 1280.44L1052.3 1708.92C1052.17 1710.04 1051.22 1710.87 1050.11 1710.87Z" fill="white"/>
<path d="M928.261 1818.11L1309.33 1818.4L1309.37 1762.83L928.303 1762.54L928.261 1818.11Z" fill="#D87355"/>
<path d="M1310.43 1819.51H1309.33L927.159 1819.22L927.202 1761.44H928.304L1310.48 1761.73L1310.43 1819.51ZM929.364 1817.01L1308.23 1817.3L1308.27 1763.93L929.407 1763.64L929.364 1817.01Z" fill="#363E44"/>
<path d="M1311.53 1820.61L926.055 1820.32L926.102 1760.34L1311.58 1760.63L1311.53 1820.61ZM930.468 1815.91L1307.13 1816.2L1307.17 1765.03L930.507 1764.75L930.468 1815.91Z" fill="#363E44"/>
<path d="M565.435 744.962C565.435 744.962 645.666 1097.16 639.202 1440.47H469.59L400.676 1022.08C400.676 1022.08 394.063 1195.11 340.863 1374.46L149.074 1378.77C149.074 1378.77 215.788 846.378 269.661 730.012L565.435 744.962Z" fill="#363E44"/>
<path d="M423.468 1199.19L633.215 1187.63L641.835 1496.57L716.332 1518.06C760.292 1529.97 790.467 1568.31 790.061 1611.74H473.44L423.468 1199.19Z" fill="#776E42"/>
<path d="M158.889 1199.19L390.684 1203.06L304.228 1496.57L363.56 1518.07C407.52 1529.97 437.695 1568.31 437.289 1611.74H120.669L158.889 1199.19Z" fill="#776E42"/>
<path d="M432.218 1586.41H123.883C122.664 1586.41 121.678 1585.43 121.678 1584.21C121.678 1582.99 122.664 1582 123.883 1582H432.217C433.436 1582 434.422 1582.99 434.422 1584.21C434.423 1585.43 433.437 1586.41 432.218 1586.41Z" fill="#363E44"/>
<path d="M787.194 1586.41H470.04C468.821 1586.41 467.835 1585.43 467.835 1584.21C467.835 1582.99 468.821 1582 470.04 1582H787.194C788.413 1582 789.399 1582.99 789.399 1584.21C789.399 1585.43 788.412 1586.41 787.194 1586.41Z" fill="#363E44"/>
<path d="M624.745 697.928C555.359 671.241 493.038 519.565 493.038 519.565L625.702 479.561L730.336 662.491C730.336 662.491 655.872 709.9 624.745 697.928Z" fill="#84524D"/>
<path d="M151.807 667.147L316.848 560.036L199.264 468.315L58.9821 596.711L151.807 667.147Z" fill="#84524D"/>
<path d="M188.22 456.575C226.741 435.768 338.107 382.567 420.745 381.808C506.094 381.024 577.816 392.406 663.055 476.687C643.901 494.884 607.506 532.236 570.126 570.482L589.178 732.291L569.784 765.333L247.263 782.573L259.398 617.44L224.841 630.276L188.22 456.575Z" fill="#EFBC73"/>
<path d="M570.348 572.345C570.344 572.345 570.342 572.345 570.337 572.345C569.12 572.339 568.136 571.348 568.143 570.129C568.216 554.96 568.343 547.321 568.503 537.649C568.581 533.05 568.664 528.044 568.751 521.599C568.768 520.391 569.752 519.424 570.956 519.424C570.965 519.424 570.975 519.424 570.986 519.424C572.202 519.441 573.178 520.44 573.161 521.659C573.073 528.108 572.991 533.118 572.913 537.722C572.754 547.381 572.627 555.007 572.553 570.15C572.547 571.365 571.561 572.345 570.348 572.345Z" fill="white"/>
<path d="M256.547 620.201C255.647 620.201 254.801 619.646 254.476 618.752C254.058 617.607 254.648 616.343 255.791 615.925C270.032 610.736 277.238 608.206 286.361 605.002C290.706 603.478 295.437 601.817 301.519 599.66C302.662 599.257 303.924 599.852 304.333 601.001C304.74 602.149 304.139 603.408 302.992 603.815C296.905 605.975 292.17 607.637 287.821 609.163C278.713 612.36 271.517 614.886 257.302 620.067C257.053 620.157 256.797 620.201 256.547 620.201Z" fill="white"/>
<path d="M611.877 1424.63C616.942 1431.95 622.268 1439.22 627.875 1446.43C756.837 1612.19 890.925 1565.2 890.925 1565.2C890.925 1565.2 968.113 1445.08 840.474 1281.02C834.867 1273.81 829.123 1266.86 823.279 1260.16L611.877 1424.63Z" fill="#363E44"/>
<path d="M161.783 640.348L214.487 593.849L792.541 1402.56L763.054 1424.7L161.783 640.348Z" fill="white"/>
<path d="M139.737 584.966C139.74 584.968 308.963 731.996 329.315 753.113C331.446 755.324 335.226 759.21 338.586 765.403C351.036 788.35 337.777 806.198 339.858 836.3C342.219 870.456 362.887 888.351 356.605 894.432C352.235 898.662 342.539 894.106 327.754 878.368C327.754 878.368 327.75 878.368 327.751 878.37C337.609 891.618 350.194 910.169 342.857 915.596C334.05 921.409 316.704 901.35 306.805 888.702C318.788 904.011 320.58 915.736 315.735 917.742C308.109 920.9 296.052 911.192 281 890.346L280.998 890.347C287.37 907.645 286.338 912.791 281.623 913.52C273.014 914.851 260.962 897.479 252.662 880.489C243.317 861.362 242.706 843.286 242.592 831.879C242.592 831.876 242.785 820.403 242.782 820.401C181.39 771.572 124.115 743.485 64.842 688.435C4.88405 632.753 70.134 549.705 139.737 584.966Z" fill="#84524D"/>
<path d="M183.147 622.191C183.147 622.191 246.884 675.78 254.78 682.656L183.147 622.191Z" fill="#84524D"/>
<path d="M329.68 802.449C352.71 820.727 386.886 823.406 391.849 810.741C395.145 802.331 353.2 780.471 333.507 757.82C337.055 771.769 326.132 788.5 329.68 802.449Z" fill="#84524D"/>
<path d="M328.064 877.433C325.566 873.458 322.717 868.01 320.646 861.173C319.286 856.682 318.557 852.567 318.173 849.067L328.064 877.433Z" fill="#84524D"/>
<path d="M308.739 889.694C306.241 885.719 303.392 880.271 301.321 873.434C299.961 868.943 299.232 864.828 298.848 861.328L308.739 889.694Z" fill="#84524D"/>
<path d="M280.898 889.845C278.4 885.87 275.551 880.422 273.48 873.585C272.12 869.094 271.391 864.979 271.007 861.479L280.898 889.845Z" fill="#84524D"/>
<path d="M622.917 564.529C622.917 564.529 808.09 509.234 829.146 487.514C831.351 485.239 835.225 481.207 841.492 477.527C864.712 463.889 883.575 476.934 914.534 473.735C949.662 470.106 967.387 448.174 973.876 454.437C978.39 458.794 974.032 468.949 958.325 484.741L958.327 484.744C971.64 474.118 990.323 460.495 996.174 467.869C1002.47 476.745 982.403 495.328 969.711 505.976C985.073 493.087 997.098 490.83 999.336 495.754C1002.86 503.505 993.273 516.274 972.309 532.521L972.31 532.523C989.919 525.349 995.26 526.233 996.177 531.068C997.85 539.896 979.514 555.333 962.289 564.484C942.898 574.787 904.894 580.965 894.029 585.481C871.635 594.79 688.196 692.899 651.043 698.127C607.737 704.221 622.917 564.529 622.917 564.529Z" fill="#84524D"/>
<path d="M882.592 484.737C904.933 457.869 907.297 443.443 902.926 440.039C895.576 434.313 870.246 448.983 832.648 484.137C847.432 485.501 867.809 483.372 882.592 484.737Z" fill="#84524D"/>
<path d="M853.846 477.548C852.744 477.548 851.792 476.723 851.658 475.602C851.516 474.392 852.379 473.296 853.589 473.154C855.37 472.943 857.316 472.698 859.383 472.435C870.584 471.01 884.523 469.242 895.81 470.129C897.024 470.226 897.931 471.287 897.836 472.5C897.741 473.717 896.648 474.608 895.465 474.526C884.626 473.671 870.357 475.486 859.938 476.808C857.858 477.073 855.899 477.323 854.105 477.534C854.019 477.544 853.932 477.548 853.846 477.548Z" fill="#363E44"/>
<path d="M923.651 500.445C922.572 500.445 921.629 499.653 921.47 498.554C921.298 497.35 922.133 496.231 923.339 496.058C927.423 495.468 931.461 494.499 935.336 493.179C940.973 491.26 946.347 488.584 951.315 485.223C952.327 484.541 953.694 484.808 954.377 485.813C955.059 486.821 954.795 488.192 953.787 488.875C948.495 492.458 942.765 495.309 936.758 497.352C932.626 498.76 928.324 499.794 923.968 500.42C923.862 500.438 923.755 500.445 923.651 500.445Z" fill="#363E44"/>
<path d="M936.969 519.937C935.89 519.937 934.947 519.145 934.788 518.046C934.616 516.84 935.451 515.723 936.657 515.548C940.731 514.962 944.768 513.996 948.654 512.671C954.289 510.753 959.665 508.076 964.63 504.715C965.642 504.035 967.011 504.302 967.692 505.305C968.375 506.313 968.11 507.684 967.102 508.367C961.81 511.95 956.082 514.8 950.075 516.844C945.932 518.256 941.628 519.288 937.285 519.914C937.177 519.931 937.072 519.937 936.969 519.937Z" fill="#363E44"/>
<path d="M938.099 548.634C937.02 548.634 936.077 547.842 935.92 546.743C935.746 545.539 936.581 544.42 937.787 544.248C941.865 543.658 945.902 542.689 949.784 541.369C955.423 539.448 960.8 536.772 965.76 533.413C966.772 532.733 968.141 532.998 968.822 534.003C969.505 535.011 969.24 536.382 968.232 537.065C962.946 540.643 957.216 543.494 951.205 545.542C947.064 546.952 942.762 547.984 938.415 548.61C938.31 548.628 938.202 548.634 938.099 548.634Z" fill="#363E44"/>
<path d="M622.917 566.734C621.967 566.734 621.089 566.116 620.805 565.16C620.456 563.993 621.119 562.766 622.286 562.417C622.465 562.363 640.437 556.991 665.405 549.078C666.561 548.701 667.806 549.354 668.172 550.514C668.54 551.675 667.899 552.913 666.736 553.281C641.734 561.207 623.727 566.587 623.548 566.641C623.337 566.703 623.126 566.734 622.917 566.734Z" fill="#363E44"/>
<path d="M853.846 477.548C852.744 477.548 851.792 476.723 851.658 475.602C851.516 474.392 852.379 473.296 853.589 473.154C855.37 472.943 857.316 472.698 859.383 472.435C870.584 471.01 884.523 469.242 895.81 470.129C897.024 470.226 897.931 471.287 897.836 472.5C897.741 473.717 896.648 474.608 895.465 474.526C884.626 473.671 870.357 475.486 859.938 476.808C857.858 477.073 855.899 477.323 854.105 477.534C854.019 477.544 853.932 477.548 853.846 477.548Z" fill="#363E44"/>
<path d="M923.651 500.445C922.572 500.445 921.629 499.653 921.47 498.554C921.298 497.35 922.133 496.231 923.339 496.058C927.423 495.468 931.461 494.499 935.336 493.179C940.973 491.26 946.347 488.584 951.315 485.223C952.327 484.541 953.694 484.808 954.377 485.813C955.059 486.821 954.795 488.192 953.787 488.875C948.495 492.458 942.765 495.309 936.758 497.352C932.626 498.76 928.324 499.794 923.968 500.42C923.862 500.438 923.755 500.445 923.651 500.445Z" fill="#363E44"/>
<path d="M936.969 519.937C935.89 519.937 934.947 519.145 934.788 518.046C934.616 516.84 935.451 515.723 936.657 515.548C940.731 514.962 944.768 513.996 948.654 512.671C954.289 510.753 959.665 508.076 964.63 504.715C965.642 504.035 967.011 504.302 967.692 505.305C968.375 506.313 968.11 507.684 967.102 508.367C961.81 511.95 956.082 514.8 950.075 516.844C945.932 518.256 941.628 519.288 937.285 519.914C937.177 519.931 937.072 519.937 936.969 519.937Z" fill="#363E44"/>
<path d="M938.099 548.634C937.02 548.634 936.077 547.842 935.92 546.743C935.746 545.539 936.581 544.42 937.787 544.248C941.865 543.658 945.902 542.689 949.784 541.369C955.423 539.448 960.8 536.772 965.76 533.413C966.772 532.733 968.141 532.998 968.822 534.003C969.505 535.011 969.24 536.382 968.232 537.065C962.946 540.643 957.216 543.494 951.205 545.542C947.064 546.952 942.762 547.984 938.415 548.61C938.31 548.628 938.202 548.634 938.099 548.634Z" fill="#363E44"/>
<path d="M855.082 556.95C854.804 556.95 854.522 556.898 854.249 556.786C853.121 556.325 852.58 555.04 853.041 553.912C855.015 549.076 859.914 540.076 870.527 534.144C881.082 528.247 891.255 528.753 896.378 529.581C897.582 529.775 898.398 530.907 898.204 532.109C898.01 533.311 896.865 534.135 895.676 533.935C891.111 533.192 882.068 532.746 872.681 537.994C863.237 543.271 858.881 551.277 857.124 555.579C856.775 556.433 855.95 556.95 855.082 556.95Z" fill="#363E44"/>
<path d="M421.956 809.285C421.405 809.285 420.875 809.078 420.466 808.706C420.035 808.312 419.779 807.761 419.753 807.177L418.28 773.687C418.226 772.471 419.169 771.441 420.386 771.388L473.011 769.073C473.579 769.034 474.165 769.256 474.598 769.65C475.029 770.044 475.285 770.595 475.311 771.179L476.784 804.667C476.838 805.884 475.895 806.913 474.678 806.967L422.053 809.284C422.021 809.285 421.988 809.285 421.956 809.285ZM422.783 775.696L424.062 804.781L472.282 802.658L471.003 773.575L422.783 775.696Z" fill="white"/>
<path d="M462.054 360.259C448.023 371.791 404.294 346.245 404.294 346.245L376.906 297.982C375.111 272.491 394.316 250.371 419.802 248.576C445.288 246.781 467.402 265.99 469.197 291.482C469.197 291.482 476.345 348.513 462.054 360.259Z" fill="#84524D"/>
<path d="M415.882 421.175L419.498 420.92C436.151 419.747 448.7 405.297 447.528 388.644L439.523 274.946L375.6 279.448L383.605 393.145C384.778 409.798 399.229 422.348 415.882 421.175Z" fill="#84524D"/>
<path d="M464.748 303.992C464.748 303.992 478.646 316.644 478.209 320.274C477.688 324.606 463.454 328.229 463.454 328.229C463.454 328.229 465.094 304 464.748 303.992Z" fill="#84524D"/>
<path d="M422.964 304.95C422.964 304.95 430.397 300.25 439.71 299.594C441.691 299.455 439.07 315.577 437.126 314.812C428.578 311.446 422.964 304.95 422.964 304.95Z" fill="white"/>
<mask id="mask0_2021_350" style="mask-type:luminance" maskUnits="userSpaceOnUse" x="422" y="299" width="45" height="18">
<path d="M422.964 304.95C422.964 304.95 433.896 298.037 445.856 299.809C457.816 301.581 466.274 311.368 466.274 311.368C466.274 311.368 455.342 318.281 443.382 316.508C431.423 314.737 422.964 304.95 422.964 304.95Z" fill="white"/>
</mask>
<g mask="url(#mask0_2021_350)">
<path d="M440.076 299.159C445.802 292.564 455.788 291.861 462.381 297.588C468.974 303.315 469.677 313.304 463.952 319.898C458.227 326.493 448.24 327.196 441.647 321.469C435.053 315.742 434.35 305.753 440.076 299.159Z" fill="#363E44"/>
</g>
<path d="M405.968 304.568C405.968 304.568 416.742 327.388 441.594 326.948C466.446 326.507 470.95 325.748 470.95 325.748L475.801 349.079C477.941 359.369 470.286 369.101 459.785 369.443L442.007 370.023C424.022 370.609 408.351 357.86 405.262 340.129L401.856 320.577L378.021 313.84C378.021 313.84 338.654 298.221 351.179 270.438C359.108 252.851 375.205 258.266 375.205 258.266L423.885 210.464C434.797 200.759 446.167 208.609 457.192 218.186C457.192 218.186 480.261 233.522 469.888 242.773L462.334 249.51L470.158 247.363C476.481 245.629 484.812 258.681 484.812 258.681C488.2 271.034 482.16 280.193 469.716 283.218C462.94 284.866 455.104 282.414 448.272 281.025C424.357 276.16 400.591 283.987 405.968 304.568Z" fill="#363E44"/>
<path d="M406.508 313.415C409.903 321.26 407.205 329.979 400.483 332.89C393.76 335.801 385.558 331.801 382.163 323.956C378.768 316.111 381.465 307.392 388.189 304.481C394.911 301.57 403.113 305.57 406.508 313.415Z" fill="#84524D"/>
<path d="M452.134 339.243C450.694 339.243 449.249 338.888 447.944 338.164C445.072 336.575 443.317 333.421 443.472 330.124C443.528 328.905 444.529 327.954 445.778 328.025C446.994 328.083 447.933 329.114 447.877 330.331C447.799 331.963 448.663 333.524 450.078 334.306C451.54 335.118 453.37 334.986 454.727 333.974C455.702 333.24 457.085 333.446 457.812 334.42C458.542 335.395 458.342 336.778 457.366 337.505C455.825 338.658 453.982 339.243 452.134 339.243Z" fill="#84524D"/>
<path d="M399.615 328.178C399.182 328.178 398.747 328.051 398.364 327.786L391.483 323.032C390.482 322.341 390.23 320.967 390.923 319.966C391.612 318.96 392.984 318.711 393.989 319.406L400.87 324.16C401.871 324.851 402.123 326.225 401.43 327.226C401.004 327.847 400.315 328.178 399.615 328.178Z" fill="#363E44"/>
<path d="M489.947 255.894C489.867 255.576 489.802 255.257 489.717 254.939C479.239 215.869 439.08 192.693 400.019 203.174C360.958 213.655 337.786 253.823 348.264 292.893C348.35 293.212 348.454 293.52 348.543 293.836L489.947 255.894Z" fill="#D87355"/>
<path d="M354.1 261.698C353.831 261.698 353.559 261.649 353.295 261.545C352.16 261.101 351.603 259.82 352.048 258.688C360.77 236.468 379.722 219.514 402.746 213.336C424.984 207.367 448.408 211.779 466.989 225.432C467.971 226.153 468.182 227.534 467.46 228.513C466.743 229.493 465.359 229.706 464.379 228.984C446.883 216.13 424.839 211.97 403.886 217.594C382.21 223.41 364.365 239.375 356.151 260.297C355.811 261.168 354.98 261.698 354.1 261.698Z" fill="#EFBC73"/>
<path d="M361.433 271.303C361.114 271.303 360.789 271.234 360.481 271.085C359.383 270.56 358.92 269.242 359.447 268.144C368.277 249.732 386.406 235.291 407.94 229.512C428.742 223.929 450.318 226.765 467.13 237.296C468.161 237.942 468.474 239.303 467.828 240.334C467.184 241.37 465.817 241.682 464.79 241.034C449.012 231.151 428.71 228.503 409.082 233.771C388.774 239.221 371.706 252.783 363.422 270.051C363.044 270.842 362.256 271.303 361.433 271.303Z" fill="#EFBC73"/>
<path d="M517.345 265.427L342.377 312.373C338.028 313.54 333.557 310.96 332.39 306.611L332.389 306.607C331.223 302.259 333.802 297.788 338.15 296.622L513.118 249.676C517.467 248.509 521.938 251.089 523.105 255.438L523.106 255.442C524.272 259.791 521.693 264.261 517.345 265.427Z" fill="#D87355"/>
<path d="M1463.39 1255.46L1723.16 1255.66L1624.02 769.658L1563.27 769.612L1463.39 1255.46Z" fill="white"/>
<path d="M1543.28 866.866L1563.27 769.612L1624.02 769.658L1643.87 866.942L1543.28 866.866Z" fill="#D87355"/>
<path d="M1683.56 1061.53L1503.29 1061.4L1523.28 964.142L1663.72 964.248L1683.56 1061.53Z" fill="#D87355"/>
<path d="M1703.41 1158.84L1723.16 1255.66L1463.39 1255.46L1483.29 1158.67L1703.41 1158.84Z" fill="#D87355"/>
<path d="M1725.86 1257.87L1460.69 1257.67L1461.23 1255.02L1561.47 767.405L1625.82 767.457L1725.86 1257.87ZM1466.1 1253.26L1720.46 1253.45L1622.22 771.861L1565.07 771.818L1466.1 1253.26Z" fill="#363E44"/>
<path d="M1529.18 1207.84C1529.1 1207.84 1529.01 1207.84 1528.92 1207.83C1527.71 1207.69 1526.85 1206.59 1526.99 1205.38L1573.78 805.761C1573.92 804.551 1575.03 803.692 1576.22 803.828C1577.43 803.97 1578.3 805.064 1578.16 806.274L1531.37 1205.9C1531.24 1207.02 1530.29 1207.84 1529.18 1207.84Z" fill="white"/>
<path d="M1415.54 1307.72L1770.94 1307.99L1770.98 1256.16L1415.58 1255.89L1415.54 1307.72Z" fill="#D87355"/>
<path d="M1772.04 1309.09H1770.94L1414.43 1308.82L1414.48 1254.79H1415.58L1772.08 1255.06L1772.04 1309.09ZM1416.64 1306.62L1769.84 1306.89L1769.88 1257.26L1416.68 1256.99L1416.64 1306.62Z" fill="#363E44"/>
<path d="M1773.14 1310.2L1413.33 1309.92L1413.38 1253.68L1773.19 1253.96L1773.14 1310.2ZM1417.74 1305.52L1768.74 1305.78L1768.77 1258.36L1417.78 1258.1L1417.74 1305.52Z" fill="#363E44"/>
<path d="M1737.06 596.768C1737.08 596.288 1737.14 595.816 1737.14 595.331C1737.14 585.782 1733.25 577.141 1726.98 570.898C1730.86 566.09 1733.2 559.981 1733.2 553.32C1733.2 537.849 1720.65 525.307 1705.18 525.307C1700.49 525.307 1696.08 526.473 1692.2 528.51C1687.72 515.57 1675.46 506.262 1660.99 506.262C1646.2 506.262 1633.67 515.993 1629.46 529.405C1616.5 530.8 1606.4 541.772 1606.4 555.107C1606.4 555.842 1606.45 556.566 1606.51 557.285C1600.66 546.573 1589.3 539.304 1576.23 539.304C1571.9 539.304 1567.77 540.138 1563.95 541.598C1557.77 528.374 1544.39 519.191 1528.83 519.191C1512.25 519.191 1498.14 529.608 1492.59 544.236C1485.92 538.489 1477.26 534.994 1467.77 534.994C1453.88 534.994 1441.77 542.455 1435.12 553.564C1432.95 537.409 1419.15 524.938 1402.4 524.938C1392.87 524.938 1384.31 528.998 1378.28 535.455C1371.17 526.438 1360.18 520.627 1347.81 520.627C1342.66 520.627 1337.76 521.653 1333.26 523.475C1331.44 504.148 1315.18 489.022 1295.37 489.022C1278.62 489.022 1264.43 499.856 1259.34 514.887C1241.54 514.953 1227.13 529.394 1227.13 547.205C1227.13 548.775 1227.28 550.304 1227.5 551.814C1224.84 551.173 1222.09 550.798 1219.23 550.798C1199.8 550.798 1184.04 566.556 1184.04 585.994C1184.04 589.754 1184.64 593.372 1185.73 596.769L1737.06 596.768Z" fill="#D3BBA3"/>
<path d="M1399.49 1111.55C1401.5 1106.77 1402.82 1101.61 1403.24 1096.16C1405.31 1068.87 1384.87 1045.06 1357.57 1042.98C1339.38 1041.6 1322.75 1050.23 1313.06 1064.21C1306.04 1040.45 1284.97 1022.34 1258.8 1020.35C1250.77 1019.73 1242.99 1020.71 1235.75 1022.99C1228.53 1015.68 1218.77 1010.82 1207.72 1009.98C1200.6 1009.44 1193.76 1010.66 1187.57 1013.21C1183.71 990.325 1164.69 972.131 1140.5 970.292C1112.02 968.127 1087.18 989.46 1085.01 1017.94C1085 1018.06 1085 1018.18 1084.99 1018.31C1079.4 1015.93 1073.34 1014.39 1066.95 1013.91C1038.45 1011.74 1013.25 1030.88 1006.99 1057.9C1005.05 1057.45 1003.06 1057.1 1001 1056.94C979.051 1055.27 959.9 1071.71 958.232 1093.67C957.752 1099.98 958.811 1106.05 961.029 1111.55L1399.49 1111.55Z" fill="#363E44"/>
</svg>
