<?xml version="1.0" encoding="UTF-8"?>
<svg version="1.1" xmlns="http://www.w3.org/2000/svg" width="1500" height="1500">
<path d="M0 0 C3.58226337 0.0031485 7.16368811 -0.02036036 10.74584961 -0.0456543 C31.51025649 -0.10274481 52.1477354 1.58644402 72.54858398 5.56567383 C73.64783203 5.77691895 74.74708008 5.98816406 75.87963867 6.20581055 C106.342848 12.23868666 136.1319424 21.62826548 164.04858398 35.31567383 C165.07999512 35.80922363 166.11140625 36.30277344 167.17407227 36.8112793 C193.3320987 49.39692318 218.58999107 64.88067993 240.51977539 83.9987793 C242.99555898 86.13138496 245.55924025 88.14988024 248.11108398 90.19067383 C251.87713952 93.26477337 255.36680547 96.47330631 258.70874023 100.00317383 C260.03521327 101.43666816 260.03521327 101.43666816 262.04858398 102.31567383 C262.04858398 102.97567383 262.04858398 103.63567383 262.04858398 104.31567383 C262.61963867 104.5605957 263.19069336 104.80551758 263.77905273 105.05786133 C270.30785489 108.67623361 275.36804306 115.5481698 280.18139648 121.17114258 C282.35441582 123.66693257 284.60867005 126.07884668 286.86108398 128.50317383 C292.31068577 134.4944529 297.22890142 140.81831848 302.04858398 147.31567383 C302.54229492 147.97422363 303.03600586 148.63277344 303.54467773 149.3112793 C356.52008428 220.13781255 378.33686437 302.84415281 378.14624023 390.32739258 C378.14437052 392.87856519 378.14294924 395.42973816 378.14195251 397.98091125 C378.13855509 403.95496066 378.13071516 409.92899321 378.12060302 415.90303403 C378.10821188 423.39018635 378.10282943 430.8773419 378.09741211 438.36450195 C378.08774639 451.68157385 378.06770244 464.99860472 378.04858398 478.31567383 C356.59858398 478.31567383 335.14858398 478.31567383 313.04858398 478.31567383 C312.99959961 470.23196289 312.95061523 462.14825195 312.90014648 453.81958008 C312.86016909 447.98727397 312.81903419 442.15498483 312.77625275 436.32269955 C312.72124181 428.80255895 312.6687964 421.28243226 312.62670898 413.76220703 C312.58972132 407.15497294 312.54290148 400.54784783 312.49052048 393.9407177 C312.47222635 391.44105061 312.45703027 388.94135853 312.44524002 386.4416523 C312.34058636 364.98702695 311.54545338 343.55530163 307.86108398 322.37817383 C307.64750244 321.13293945 307.4339209 319.88770508 307.21386719 318.60473633 C303.56422169 298.21536624 297.720701 278.5406917 290.04858398 259.31567383 C289.67894531 258.3869043 289.30930664 257.45813477 288.9284668 256.5012207 C278.91798944 231.69964852 265.48168776 208.41861645 249.04858398 187.31567383 C248.41436523 186.4984082 247.78014648 185.68114258 247.12670898 184.83911133 C245.12994563 182.30602724 243.09723699 179.80698221 241.04858398 177.31567383 C240.22358398 176.30375977 239.39858398 175.2918457 238.54858398 174.24926758 C226.77632279 160.03738776 213.71308316 146.54898616 199.04858398 135.31567383 C197.58098633 134.10524414 197.58098633 134.10524414 196.08374023 132.87036133 C178.93544378 118.78062574 159.74073459 107.44584537 140.04858398 97.31567383 C138.98027344 96.75807373 138.98027344 96.75807373 137.89038086 96.18920898 C109.22613128 81.36359202 76.8774907 72.82903516 45.04858398 68.31567383 C43.8669165 68.1399585 43.8669165 68.1399585 42.66137695 67.96069336 C16.7466326 64.26486311 -12.07539608 64.45958382 -37.95141602 68.31567383 C-38.96284668 68.46633301 -39.97427734 68.61699219 -41.01635742 68.7722168 C-58.73207473 71.52846575 -75.86911041 75.90670777 -92.95141602 81.31567383 C-93.90822266 81.61812012 -94.8650293 81.92056641 -95.85083008 82.23217773 C-138.24762002 95.94789524 -181.06905526 121.20776546 -211.51025391 153.99462891 C-212.95141602 155.31567383 -212.95141602 155.31567383 -214.95141602 155.31567383 C-214.95141602 155.97567383 -214.95141602 156.63567383 -214.95141602 157.31567383 C-215.61141602 157.31567383 -216.27141602 157.31567383 -216.95141602 157.31567383 C-217.20793945 157.90219727 -217.46446289 158.4887207 -217.72875977 159.09301758 C-219.06315498 161.51880312 -220.49626929 162.99096083 -222.51391602 164.87817383 C-227.43939577 169.67895789 -231.66717426 174.94528628 -235.95141602 180.31567383 C-236.62172852 181.13036133 -237.29204102 181.94504883 -237.98266602 182.78442383 C-247.28506843 194.15402678 -255.11225511 206.41912863 -262.59594727 219.03344727 C-263.46469064 220.49616575 -264.33918512 221.95549286 -265.22094727 223.41040039 C-290.66916978 265.56154355 -303.92875529 317.21865847 -304.15673828 366.25415039 C-304.16634523 367.60565979 -304.17635682 368.95716636 -304.18673706 370.30867004 C-304.21348768 373.93799068 -304.23465639 377.56732392 -304.25473905 381.19668674 C-304.27678545 385.00433642 -304.30408181 388.81194859 -304.33079529 392.61956787 C-304.38047243 399.81213055 -304.42550263 407.00471433 -304.46881765 414.19731784 C-304.52769734 423.92919979 -304.59384807 433.66103223 -304.65956783 443.39286995 C-304.76275118 458.70043775 -304.85629989 474.00804884 -304.95141602 489.31567383 C-326.40141602 489.31567383 -347.85141602 489.31567383 -369.95141602 489.31567383 C-370.11660803 473.87691707 -370.28177832 458.43833719 -370.42476273 442.99939346 C-370.50177071 434.70467564 -370.58196542 426.41003321 -370.67504883 418.11547852 C-370.74883854 411.5391759 -370.81430189 404.96284667 -370.87056005 398.38636994 C-370.90050089 394.9178842 -370.93406846 391.44953656 -370.97768021 387.98119354 C-371.69683452 328.21681612 -361.50395019 269.68150641 -335.95141602 215.31567383 C-335.67185059 214.71416504 -335.39228516 214.11265625 -335.10424805 213.49291992 C-320.66793944 182.66242405 -301.18340362 155.06053636 -279.38671875 129.07641602 C-278.33741866 127.78919842 -277.34672453 126.4535882 -276.39306641 125.09399414 C-275.91732178 124.50714844 -275.44157715 123.92030273 -274.95141602 123.31567383 C-274.29141602 123.31567383 -273.63141602 123.31567383 -272.95141602 123.31567383 C-272.71438965 122.75340088 -272.47736328 122.19112793 -272.2331543 121.61181641 C-270.65752301 118.7891855 -268.73567244 116.85795377 -266.44360352 114.57739258 C-265.53868164 113.6744043 -264.63375977 112.77141602 -263.70141602 111.84106445 C-263.22833008 111.37418213 -262.75524414 110.9072998 -262.26782227 110.42626953 C-260.84683418 109.02333262 -259.43421159 107.6119389 -258.02172852 106.20043945 C-252.82378872 101.03553741 -247.52986097 96.06541427 -241.95141602 91.31567383 C-240.9755957 90.45844727 -239.99977539 89.6012207 -238.99438477 88.71801758 C-184.52865413 41.70313928 -115.23217839 11.36252089 -43.95141602 2.31567383 C-43.2783139 2.22847076 -42.60521179 2.1412677 -41.91171265 2.05142212 C-27.94528324 0.29273241 -14.06635386 -0.02571545 0 0 Z " fill="#6722EF" transform="translate(745.951416015625,-0.315673828125)"/>
<path d="M0 0 C1.22976563 0.33902344 2.45953125 0.67804687 3.7265625 1.02734375 C30.4313983 9.49693614 50.25697946 30.72956973 63.25 54.75 C74.3261712 77.6736635 75.31856882 105.86932153 68 130 C67.649375 131.21558594 67.29875 132.43117188 66.9375 133.68359375 C58.25856152 160.71487088 37.57005643 180.10680207 13 193 C11.9584375 193.5671875 10.916875 194.134375 9.84375 194.71875 C7 196 7 196 3 196 C14.34864196 231.15361535 26.01475048 266.20040422 37.70436478 301.24166274 C39.49074569 306.59703234 41.27558409 311.95291427 43.05957031 317.30908203 C53.00150683 347.157782 62.94737906 377.00345313 73.15366554 406.76306915 C73.41394224 407.52204247 73.67421894 408.28101578 73.94238281 409.06298828 C74.32479913 410.17809406 74.32479913 410.17809406 74.71494102 411.31572723 C79.02531175 423.89784102 83.24475793 436.51074797 87.45556641 449.12646484 C88.67297412 452.77298931 89.89604694 456.41759192 91.12003899 460.06191063 C92.08208547 462.92954848 93.04017529 465.79849639 93.99713516 468.66783524 C94.44777549 470.01674903 94.89990229 471.36516725 95.35360336 472.71305466 C95.97416036 474.55777966 96.58856009 476.40457254 97.20263672 478.25146484 C97.55123749 479.29362152 97.89983826 480.3357782 98.25900269 481.40951538 C99 484 99 484 99 487 C13.2 487 -72.6 487 -161 487 C-159.2635832 480.6331384 -157.58218787 474.49971595 -155.47460938 468.28857422 C-155.23608057 467.58244649 -154.99755177 466.87631876 -154.75179482 466.14879322 C-154.22994474 464.60526718 -153.70662308 463.06223803 -153.18198013 461.51965904 C-152.30289023 458.93453175 -151.42799337 456.3480138 -150.55392456 453.76118469 C-149.24024445 449.87443159 -147.92499733 445.98821387 -146.60858154 442.10238647 C-142.85623073 431.02360055 -139.11828376 419.93995564 -135.3828125 408.85546875 C-134.96482014 407.61526537 -134.54682777 406.37506199 -134.11616898 405.09727669 C-120.44134674 364.51446215 -106.92970105 323.8768591 -93.39438248 283.247365 C-92.03000669 279.15193877 -90.66552085 275.05654922 -89.30103791 270.96115869 C-81.19837762 246.64154309 -73.0979393 222.321188 -65 198 C-66.41696167 197.29206299 -66.41696167 197.29206299 -67.86254883 196.56982422 C-69.12321303 195.93978543 -70.38387364 195.30973948 -71.64453125 194.6796875 C-72.57465027 194.21502075 -72.57465027 194.21502075 -73.52355957 193.7409668 C-100.59895333 180.2077158 -119.93451674 160.27058776 -129.8125 131.3125 C-133.2088745 121.07700962 -134.3684483 111.07855102 -134.3125 100.3125 C-134.30686035 99.17055176 -134.3012207 98.02860352 -134.29541016 96.85205078 C-133.86390206 66.66784594 -121.19075255 42.41539445 -99.8046875 21.5625 C-86.5262929 9.43070772 -71.33431842 2.17829021 -54 -2 C-53.03191406 -2.24621094 -52.06382812 -2.49242187 -51.06640625 -2.74609375 C-34.26129286 -6.28272864 -16.389394 -4.59777337 0 0 Z " fill="#8042F9" transform="translate(784,758)"/>
<path d="M0 0 C2.75418508 1.12542399 5.15132789 2.60605987 7.625 4.25 C8.30304687 4.68675049 8.98109375 5.12350098 9.6796875 5.57348633 C16.79353593 10.29217445 23.13754976 15.85090114 29.4375 21.58886719 C31.41851084 23.3779676 33.45855682 25.09297671 35.5 26.8125 C39.385708 30.23125597 42.68797032 34.03232362 46 38 C46.79664063 38.93199219 47.59328125 39.86398437 48.4140625 40.82421875 C75.54216499 72.82882304 88.40573437 109.25018333 95.203125 150.21484375 C102.64554445 195.02028031 116.93954582 240.11886527 143.81445312 277.35693359 C145.05517991 279.07647463 146.2710975 280.81178171 147.484375 282.55078125 C149.94798449 286.06475204 152.46057443 289.54050719 155 293 C155.40186523 293.54897949 155.80373047 294.09795898 156.21777344 294.66357422 C162.5923968 303.31631641 169.54685536 311.26265537 177 319 C177.50321777 319.52513184 178.00643555 320.05026367 178.52490234 320.59130859 C193.75683398 336.41115653 211.46868903 349.89190919 231 360 C231.69786621 360.3619043 232.39573242 360.72380859 233.11474609 361.09667969 C266.37215887 378.09861701 310.95027037 389.05581306 347.75 377.375 C360.14861477 372.34554705 368.97526588 363.30901544 374.375 351.125 C378.70713268 338.84417746 379.35337657 325.47030685 374.3125 313.25 C373.57721051 311.81456354 372.80341601 310.39844599 372 309 C371.2575 307.66001953 371.2575 307.66001953 370.5 306.29296875 C363.83842897 295.02072703 354.48368809 287.22421359 342 283 C336.6873912 281.86627833 331.40284211 281.39837182 326 281 C300.76189283 278.86937243 279.48618571 272.14810613 259 257 C258.08347656 256.32710937 257.16695312 255.65421875 256.22265625 254.9609375 C218.21960929 225.35856408 196.0998567 181.86870523 188.703125 134.9140625 C184.40698925 107.70090621 178.77025084 81.51606187 168 56 C167.68595215 55.24396484 167.3719043 54.48792969 167.04833984 53.70898438 C164.02518789 46.47596416 160.80753329 39.41211781 157.05078125 32.52734375 C156.29341675 31.13225586 156.29341675 31.13225586 155.52075195 29.70898438 C154.53353637 27.90983984 153.52905771 26.12002107 152.50463867 24.34179688 C149.47842703 18.85380945 147.91877461 14.30030825 149 8 C150.78586343 4.29089903 152.36223095 2.45978699 155.6875 0.0625 C159.98010572 -1.31437353 163.68553881 -1.37312417 168 0 C173.4696264 3.25530991 175.80883551 8.42044012 178.6875 13.875 C179.21150391 14.85968262 179.73550781 15.84436523 180.27539062 16.85888672 C181.87257119 19.89498178 183.44220297 22.94353108 185 26 C185.44037598 26.85916016 185.88075195 27.71832031 186.33447266 28.60351562 C200.72136728 57.14080797 209.3607811 88.66099268 214.51171875 120.0703125 C214.70637726 121.25491058 214.70637726 121.25491058 214.90496826 122.46343994 C215.53709029 126.33256949 216.15232764 130.20301763 216.73388672 134.08007812 C218.79541843 147.49460105 221.98738954 160.70904656 227.75 173.0625 C228.08652588 173.79871582 228.42305176 174.53493164 228.76977539 175.29345703 C236.16260649 191.16655015 245.07998109 205.06876306 257.15234375 217.84375 C259 220 259 220 260.00390625 222.15625 C261.29087441 224.53840284 262.57246908 224.884769 265 226 C266.32216977 227.15344099 267.61118441 228.34540133 268.875 229.5625 C284.63030916 243.77064296 304.92597384 252.61562138 326.20166016 253.23852539 C349.85409047 254.0210856 369.17389797 262.52795775 385.6875 279.6875 C400.373544 296.65920737 406.17808319 317.38273633 405.18652344 339.46337891 C403.72415275 359.35085465 394.05692624 376.5497808 379.8125 390.1875 C356.48273343 409.88460395 325.94201891 410.55896141 296.875 408.25 C241.8373023 403.24412408 188.99447051 375.65937427 152.375 334.0625 C151.86066406 333.4334375 151.34632813 332.804375 150.81640625 332.15625 C149.39504181 330.46895285 147.88276644 328.85815777 146.33984375 327.28125 C138.5717363 319.15540075 134.02876143 310.44250962 129.3605957 300.25878906 C123.57576114 287.69613706 116.4661127 277.16051767 107.19726562 266.9152832 C80.37018125 237.03593362 72.73651155 186.35825195 66.62234497 148.27255249 C60.43860306 109.97912465 45.44685256 75.83727721 18 48 C17.12472656 47.11183594 16.24945312 46.22367188 15.34765625 45.30859375 C8.42071078 38.63424377 0.84982213 33.19747094 -7.14624023 27.85791016 C-16.82780065 21.32443421 -16.82780065 21.32443421 -18.71484375 15.97265625 C-19.28060388 11.11902986 -18.85019746 8.18028961 -16 4 C-10.43718787 -1.02009875 -7.18723347 -1.54532809 0 0 Z " fill="#7433F4" transform="translate(752,494)"/>
<path d="M0 0 C6.02929267 4.15351273 8.17300679 11.96916202 10.5625 18.625 C10.90394043 19.57487793 11.24538086 20.52475586 11.59716797 21.50341797 C20.51877886 46.85549211 27.41724273 73.20581285 30.4375 99.9375 C31.65791227 114.2921344 31.65791227 114.2921344 38.75 126.375 C47.65985172 132.58051652 58.90040897 134.87245898 69.3125 137.25 C121.45251321 149.83789692 166.31138771 182.22107067 194.35253906 228.06958008 C195.51882497 230.01825344 196.6690425 231.97535695 197.8125 233.9375 C198.16650879 234.5370752 198.52051758 235.13665039 198.88525391 235.75439453 C209.22666811 253.45272282 215.44748747 272.99226027 219.8125 292.9375 C219.99184082 293.74993164 220.17118164 294.56236328 220.35595703 295.39941406 C230.66384048 344.84040418 218.47418584 398.66839299 191.60644531 440.83007812 C163.72450499 483.16678358 119.97369107 513.69612526 70.5 524.8125 C-12.04168016 541.76283387 -99.15746114 521.40843711 -169.1875 475.9375 C-174.33271942 472.48410182 -179.38231812 468.90332383 -184.38671875 465.24951172 C-187.30466515 463.12355674 -190.24741337 461.0326906 -193.1875 458.9375 C-192.38355322 455.1803196 -190.99523274 453.20150387 -188.5 450.25 C-184.72323385 445.67024573 -181.3772303 440.93957706 -178.1875 435.9375 C-173.4973576 438.99477801 -168.90917699 442.13014422 -164.4375 445.5 C-124.44292393 474.66271172 -77.12927568 493.15137675 -28.1875 499.9375 C-27.55878998 500.02470306 -26.93007996 500.11190613 -26.28231812 500.20175171 C-13.88310871 501.87287998 -1.62679548 502.3005484 10.875 502.25 C11.81449493 502.24817719 12.75398987 502.24635437 13.72195435 502.24447632 C63.04470474 502.08379885 108.83281196 489.07259443 144.8125 453.9375 C145.44027344 453.36 146.06804687 452.7825 146.71484375 452.1875 C152.81850583 446.44287686 157.82227633 439.64305836 162.8125 432.9375 C163.23966309 432.36531738 163.66682617 431.79313477 164.10693359 431.20361328 C189.82313765 396.19457679 200.35150942 350.09234878 194.0234375 307.30078125 C192.22039253 296.19566335 189.61478141 285.52162838 185.8125 274.9375 C185.15121094 273.09671875 185.15121094 273.09671875 184.4765625 271.21875 C173.15211341 241.43732588 153.17198206 212.36838194 126.8125 193.9375 C126.28994629 193.56560547 125.76739258 193.19371094 125.22900391 192.81054688 C104.47189487 178.11463013 81.24471141 168.65354716 56.61328125 162.66015625 C55.7313208 162.44504395 54.84936035 162.22993164 53.94067383 162.00830078 C52.24617041 161.59998291 50.54949336 161.20053363 48.8503418 160.81201172 C34.70805303 157.45149656 20.14204409 150.04872463 12.2578125 137.5 C5.98140129 126.37209255 3.60294997 114.6348853 2.28125 102.06640625 C-0.52894853 75.98834633 -7.65395083 50.65429109 -16.73242188 26.10180664 C-17.18294922 24.86551514 -17.63347656 23.62922363 -18.09765625 22.35546875 C-18.70299194 20.74321411 -18.70299194 20.74321411 -19.32055664 19.09838867 C-20.45738659 14.95348938 -20.8284932 10.97359604 -19.5234375 6.828125 C-15.04960382 -0.81012762 -8.45897805 -2.81965935 0 0 Z " fill="#7535F5" transform="translate(1055.1875,494.0625)"/>
<path d="M0 0 C23.53475678 15.44631487 33.15648232 79.94492988 38.54394531 105.80712891 C38.89863833 107.54415792 39.25114473 109.28163473 39.6015625 111.01953125 C39.77680954 111.88844498 39.95205658 112.7573587 40.13261414 113.65260315 C40.98778459 117.9232586 41.8207407 122.19693065 42.62329102 126.4777832 C46.83115813 148.46910595 56.74959598 166.42994555 74.8046875 180.0703125 C87.7193273 188.7175061 101.57993415 191.93910654 116.5703125 195.19921875 C141.38367037 200.69117047 161.11113961 210.38658702 180.5 226.875 C181.42683594 227.58011719 182.35367187 228.28523437 183.30859375 229.01171875 C184.03175781 229.62660156 184.75492188 230.24148438 185.5 230.875 C185.5 231.535 185.5 232.195 185.5 232.875 C186.09554688 233.13796875 186.69109375 233.4009375 187.3046875 233.671875 C199.31389045 240.25343107 208.22018837 259.03508549 214.5 270.875 C214.96019531 271.73996094 215.42039062 272.60492187 215.89453125 273.49609375 C221.79074836 285.49442762 225.84815179 299.61730919 227.5 312.875 C227.60957031 313.71289062 227.71914062 314.55078125 227.83203125 315.4140625 C231.91350709 352.31060408 221.40048417 388.69073739 198.5 417.875 C195.62271982 421.33657428 192.61424603 424.62628739 189.5 427.875 C188.74332031 428.69484375 187.98664063 429.5146875 187.20703125 430.359375 C170.83873709 447.55542955 149.0825176 458.97962437 126.1875 464.625 C125.39529053 464.82375732 124.60308105 465.02251465 123.78686523 465.22729492 C108.09978868 468.85552429 92.08921578 469.28591644 76.0625 469.25 C75.09989258 469.24912384 74.13728516 469.24824768 73.14550781 469.24734497 C57.26874239 469.19988154 42.06414671 468.24502837 26.5 464.875 C25.36256348 464.63362305 24.22512695 464.39224609 23.05322266 464.14355469 C1.72976698 459.49976691 -18.97724492 452.70463892 -38.5 442.875 C-39.2209082 442.52308594 -39.94181641 442.17117188 -40.68457031 441.80859375 C-58.88899612 432.8939416 -75.85882526 421.96330548 -91.9375 409.625 C-92.50460693 409.19574219 -93.07171387 408.76648438 -93.65600586 408.32421875 C-96.57794457 406.0004906 -97.96294132 404.56987883 -98.5 400.875 C-98.26220703 398.81958008 -98.26220703 398.81958008 -97.7578125 396.64453125 C-97.57863281 395.84080078 -97.39945313 395.03707031 -97.21484375 394.20898438 C-96.92287109 392.96084961 -96.92287109 392.96084961 -96.625 391.6875 C-95.18172701 385.41175089 -94.10614364 379.29109489 -93.5 372.875 C-90.44442029 374.34140984 -88.2783973 375.85165003 -85.8125 378.1875 C-73.72908347 389.0882004 -60.43726079 398.19570666 -46.54931641 406.62353516 C-44.85616238 407.65750079 -43.18131152 408.72137392 -41.51171875 409.79296875 C3.41072069 437.81126061 66.70557209 449.62999731 118.5 437.875 C136.90011996 433.22321845 152.67853162 424.82790616 166.5 411.875 C167.31984375 411.13507813 168.1396875 410.39515625 168.984375 409.6328125 C189.16700137 390.63330561 198.98430151 362.63012899 200.71484375 335.5078125 C201.60672583 304.61301732 189.4442191 276.75685778 169.00390625 254.109375 C151.16973813 235.50477082 130.11355741 227.09013223 105.56640625 221.19921875 C71.72930344 213.07341409 46.4035453 198.85604293 27.51953125 168.69921875 C21.26752217 157.31133982 18.10140478 146.07667384 15.60177612 133.412323 C14.67791888 128.7443109 13.69957337 124.0876568 12.7265625 119.4296875 C12.53599777 118.5123735 12.34543304 117.59505951 12.14909363 116.64994812 C5.9702129 87.07529571 -2.69528954 57.29875503 -14.78125 29.5625 C-15.338125 28.28318604 -15.338125 28.28318604 -15.90625 26.97802734 C-16.61017948 25.38318711 -17.32789826 23.79432558 -18.0625 22.21337891 C-20.31230981 17.16378059 -20.98352757 13.41198037 -20.5 7.875 C-16.2122309 -0.8654524 -8.98556717 -2.88821802 0 0 Z " fill="#7434F5" transform="translate(989.5,494.125)"/>
<path d="M0 0 C1.29810608 0.00555908 1.29810608 0.00555908 2.62243652 0.01123047 C41.10339704 0.24418102 77.59312149 10.32075714 111.5 28.4375 C112.48129883 28.95715332 112.48129883 28.95715332 113.48242188 29.48730469 C132.89646454 39.83830402 150.66171349 52.77033689 166.6953125 67.8203125 C169.29576174 70.24691555 171.94903222 72.59498615 174.625 74.9375 C212.74769417 109.29048598 237.39948827 159.81873612 247.5 209.4375 C247.67789062 210.27007324 247.85578125 211.10264648 248.0390625 211.96044922 C253.07805744 236.32059041 252.86282032 265.16616003 247.5 289.4375 C247.32839355 290.22495605 247.15678711 291.01241211 246.97998047 291.82373047 C243.36050068 307.87041434 237.91461365 323.2533996 230.375 337.875 C229.96741455 338.67421875 229.5598291 339.4734375 229.13989258 340.296875 C226.4714283 345.28389398 223.92719882 349.34675672 218.25390625 351.15234375 C213.11296878 351.67468499 209.95916869 351.41027912 205.5 348.4375 C202.71413868 346.13195959 201.73963383 344.17757598 201.23754883 340.53173828 C200.94571761 333.78974768 203.08976307 329.19350498 206.1875 323.3125 C227.64313838 280.40122323 226.69328984 231.28584984 212.31274414 186.22680664 C201.25337331 153.3742629 182.60278583 123.25268344 158.5 98.4375 C157.95085937 97.86257813 157.40171875 97.28765625 156.8359375 96.6953125 C149.0957932 88.60173695 141.06971197 81.30251325 132.08154297 74.61767578 C130.66790047 73.56279035 129.27209944 72.48409286 127.87890625 71.40234375 C86.09715348 39.65864078 31.86255598 22.47840977 -20.47607422 28.72558594 C-35.0783137 30.43776173 -35.0783137 30.43776173 -40.375 28.25 C-46.23041935 23.25567173 -46.23041935 23.25567173 -46.8515625 19.06640625 C-47.01300611 14.12769934 -46.88981969 10.29488103 -43.5 6.4375 C-39.20001283 3.27874884 -35.06121979 2.53508115 -29.90625 1.77734375 C-28.65455017 1.58844826 -28.65455017 1.58844826 -27.37756348 1.39573669 C-18.25479777 0.11907257 -9.19813823 -0.07140372 0 0 Z " fill="#894FFE" transform="translate(262.5,1077.5625)"/>
<path d="M0 0 C0.74544067 0.00093658 1.49088135 0.00187317 2.25891113 0.00283813 C76.00862572 0.20244338 149.95128577 24.90315238 209.625 68.1875 C210.62587646 68.91235596 210.62587646 68.91235596 211.64697266 69.65185547 C220.97985262 76.44966067 229.91196376 83.61516767 238.625 91.1875 C239.30304688 91.765 239.98109375 92.3425 240.6796875 92.9375 C245.31640259 96.91751295 249.77876117 101.08639537 254.25 105.25 C254.88405762 105.84014893 255.51811523 106.43029785 256.17138672 107.03833008 C257.99748711 108.74627104 259.81387816 110.46369119 261.625 112.1875 C262.51396973 113.02837158 262.51396973 113.02837158 263.42089844 113.88623047 C264.86223298 115.27980231 266.24921999 116.72917319 267.625 118.1875 C267.625 118.8475 267.625 119.5075 267.625 120.1875 C268.285 120.1875 268.945 120.1875 269.625 120.1875 C271.03515625 121.5859375 271.03515625 121.5859375 272.6875 123.5625 C275.37437105 126.73234167 278.11898472 129.82160845 280.9375 132.875 C285.67197765 138.13641783 290.01261003 143.65792285 294.23876953 149.33007812 C295.18519528 150.59820195 296.13694019 151.86236894 297.09326172 153.12304688 C311.68027354 172.3859209 323.53197149 193.26629433 334.39160156 214.81298828 C335.46941476 216.88797069 336.6028832 218.8976439 337.8046875 220.90234375 C341.79472821 227.79181405 341.79472821 227.79181405 341.33496094 231.57250977 C341.07489258 232.39549561 340.81482422 233.21848145 340.546875 234.06640625 C340.25417725 235.02401855 339.96147949 235.98163086 339.65991211 236.96826172 C339.31839111 238.03061035 338.97687012 239.09295898 338.625 240.1875 C338.26220947 241.37746582 337.89941895 242.56743164 337.52563477 243.79345703 C336.34679387 247.65954015 335.14504991 251.51782808 333.9375 255.375 C333.51739972 256.72194958 333.09747674 258.06895447 332.67773438 259.41601562 C331.66189022 262.67372274 330.64427642 265.93086548 329.625 269.1875 C328.635 269.1875 327.645 269.1875 326.625 269.1875 C326.41520508 268.59662598 326.20541016 268.00575195 325.98925781 267.39697266 C317.3250315 243.19192883 306.93210987 220.20198694 293.625 198.1875 C292.72587891 196.68316406 292.72587891 196.68316406 291.80859375 195.1484375 C290.14092423 192.44840113 288.40449565 189.81551964 286.625 187.1875 C286.13805664 186.46739746 285.65111328 185.74729492 285.14941406 185.00537109 C278.56674696 175.31582347 271.87268394 165.87813616 264.140625 157.0703125 C261.69857396 154.27181301 259.37652044 151.40466203 257.0625 148.5 C253.18711532 143.71193415 248.95660373 139.42684906 244.49609375 135.18359375 C242.625 133.1875 242.625 133.1875 242.625 131.1875 C242.06296875 130.95417969 241.5009375 130.72085937 240.921875 130.48046875 C238.05765858 128.86812924 236.15247979 126.8681438 233.875 124.5 C229.6126935 120.16356643 225.29319051 116.08016854 220.625 112.1875 C220.09197266 111.74067871 219.55894531 111.29385742 219.00976562 110.83349609 C157.92562089 59.8034714 81.20791386 28.0519903 1.0625 27.9375 C0.30708923 27.93516357 -0.44832153 27.93282715 -1.22662354 27.93041992 C-12.95531634 27.91687035 -24.40981112 28.59511958 -36.05297852 30.12011719 C-55.2074903 32.61383175 -55.2074903 32.61383175 -60.44555664 30.25512695 C-63.61493404 27.7949474 -65.57803751 25.08376107 -66.375 21.1875 C-66.43172864 16.7464579 -65.94608366 13.23829394 -63.8125 9.3125 C-57.65130591 3.94120258 -49.49942633 3.43213886 -41.6875 2.5625 C-40.68783203 2.44132813 -39.68816406 2.32015625 -38.65820312 2.1953125 C-25.76731854 0.67387391 -12.9725141 -0.02123963 0 0 Z " fill="#8549FC" transform="translate(263.375,954.8125)"/>
<path d="M0 0 C4.61733088 0.5243123 7.20162682 2.34935892 10.875 5.125 C32.31126253 20.94279218 54.85671915 33.85315327 79 45 C79.82790039 45.38800781 80.65580078 45.77601563 81.50878906 46.17578125 C141.63814247 74.17513462 214.12837937 87.94833974 280 77 C281.04913574 76.82839355 282.09827148 76.65678711 283.17919922 76.47998047 C333.47141993 68.03632031 383.82673567 48.98394228 426 20 C427.14704064 19.22121456 428.29417876 18.44257268 429.44140625 17.6640625 C434.87811954 13.95195162 440.23726419 10.16284911 445.4140625 6.09375 C449.22314608 3.46679581 453.55281222 3.52040132 458 4 C462.11639609 5.77753468 464.76553623 8.11037788 467 12 C467.80498496 16.86243441 467.76135618 20.54632749 465.44921875 24.9609375 C462.46180268 28.66781103 459.23607586 31.04438452 455.3125 33.6875 C454.56427979 34.20223877 453.81605957 34.71697754 453.04516602 35.24731445 C450.7066249 36.84669949 448.35580916 38.42618177 446 40 C445.27458008 40.48726562 444.54916016 40.97453125 443.80175781 41.4765625 C429.48638302 51.05066423 414.65312867 59.36831409 399.18408203 66.92041016 C397.54376445 67.73121771 395.91045092 68.5562198 394.28076172 69.38818359 C308.15857864 113.20128049 209.76006356 117.75276173 112.2890625 88.19921875 C79.32902085 77.2794835 47.32486697 62.62795216 18 44 C17.41750992 43.66133408 16.83501984 43.32266815 16.23487854 42.97373962 C11.13864458 39.77043198 9.51423495 36.70088477 7.91015625 30.99609375 C7.67590439 30.23579361 7.44165253 29.47549347 7.20030212 28.69215393 C6.46419033 26.28031557 5.76375069 23.85967344 5.0625 21.4375 C4.56661483 19.80728359 4.06858743 18.17771718 3.56835938 16.54882812 C3.09706201 14.99015547 2.62759643 13.4309275 2.16015625 11.87109375 C1.94150406 11.14184189 1.72285187 10.41259003 1.49757385 9.66123962 C0.51624905 6.26351907 0 3.57092813 0 0 Z " fill="#7C3EF8" transform="translate(836,974)"/>
<path d="M0 0 C1.757108 -0.00101212 1.757108 -0.00101212 3.54971313 -0.00204468 C23.08616677 0.01575339 42.24199717 0.79296588 61.625 3.25 C62.30832397 3.33485657 62.99164795 3.41971313 63.69567871 3.50714111 C129.17840085 11.65794408 191.75401505 31.629495 250.625 61.25 C251.93500977 61.9001709 251.93500977 61.9001709 253.27148438 62.56347656 C282.40260338 77.05792674 309.93117668 95.36019754 335.625 115.25 C336.25937988 115.74016602 336.89375977 116.23033203 337.54736328 116.73535156 C340.59365812 119.0948201 343.62450968 121.47019102 346.62890625 123.8828125 C348.32491889 125.22281727 350.04722715 126.53446344 351.83984375 127.7421875 C357.2648497 131.56462058 358.82531155 137.19853558 361.04296875 143.1796875 C369.6106325 165.91465337 387.76031834 189.62137689 408.625 202.25 C408.12841703 207.91104589 407.07989316 212.12674471 404.625 217.25 C400.42468473 213.94336883 397.03513886 210.63064715 393.75 206.41015625 C388.39577056 199.79069066 382.46879397 193.82650761 376.42260742 187.84179688 C374.55649491 185.99405402 372.69862288 184.13832035 370.84179688 182.28125 C364.93657757 176.39371468 358.99053781 170.64336434 352.625 165.25 C351.01731627 163.79554483 349.41260285 162.33779105 347.8125 160.875 C320.68763092 136.45851421 290.4539009 115.98096854 258.99511719 97.640625 C257.062221 96.50653181 255.14238382 95.35020535 253.2265625 94.1875 C245.08556607 89.2618551 236.53190956 85.29672548 227.90576172 81.30810547 C225.89148775 80.37363069 223.88364247 79.42737035 221.87890625 78.47265625 C172.45669305 55.0563345 120.70438172 39.49730439 66.5 32.0625 C64.82478271 31.8301062 64.82478271 31.8301062 63.11572266 31.59301758 C43.2318889 28.99769268 23.39091449 27.93101716 3.34619141 28.04418945 C-0.03360439 28.06268389 -3.41312704 28.06469631 -6.79296875 28.06445312 C-18.03540493 28.0828788 -29.1671229 28.3225844 -40.375 29.25 C-56.07229631 30.35909758 -56.07229631 30.35909758 -60.8125 26.375 C-64.5498113 22.33519091 -64.65947167 19.09564902 -64.58984375 13.7265625 C-64.30815491 10.47945841 -63.52642982 8.69817877 -61.375 6.25 C-57.4891369 3.48132254 -54.27351517 2.68644276 -49.5625 2.125 C-47.82033203 1.90457031 -47.82033203 1.90457031 -46.04296875 1.6796875 C-30.710112 0.16899167 -15.39557036 0.00800912 0 0 Z " fill="#7E41F9" transform="translate(261.375,771.75)"/>
<path d="M0 0 C5.21387307 2.9345843 8.25710241 6.43439366 11.6875 11.1875 C12.20441406 11.89382568 12.72132813 12.60015137 13.25390625 13.32788086 C40.62095173 51.1119252 56.14313966 92.75573702 63.39453125 138.671875 C71.33431633 188.90171192 88.87442188 231.69176312 124 269 C124.70640625 269.77214844 125.4128125 270.54429687 126.140625 271.33984375 C149.3127766 295.79442359 185.64550586 313.37192101 219.41378784 315.12533569 C225.82830484 315.25709104 232.24114374 315.05670755 238.65258789 314.86303711 C241.05351138 314.79652359 243.45397814 314.75475559 245.85546875 314.71484375 C246.57220261 314.68478745 247.28893646 314.65473114 248.02738953 314.62376404 C253.5839251 314.54242727 256.54566648 315.9263249 261 319 C263.61827124 322.51830199 264.23043448 325.2153589 264 329.5 C263.24904759 334.34037802 261.56676132 336.67642695 258 340 C240.458235 350.23269625 206.77413178 342.4679425 188.1875 337.6875 C161.43577251 330.35491514 136.95849454 317.18552449 116 299 C115.18273437 298.29359375 114.36546875 297.5871875 113.5234375 296.859375 C110.97668435 294.61176428 108.48106166 292.31990509 106 290 C105.06414062 289.12988281 104.12828125 288.25976562 103.1640625 287.36328125 C63.99341044 250.07888763 44.26472552 197.00852987 36.0625 144.75 C29.34202301 102.03402647 16.01372655 62.31899501 -11 28 C-19.33498987 17.32191211 -19.33498987 17.32191211 -18.875 11 C-18.21900629 7.04167432 -17.00591164 4.76860282 -14 2 C-8.94558681 -0.8609886 -5.62113587 -1.53303706 0 0 Z " fill="#7333F4" transform="translate(844,494)"/>
<path d="M0 0 C1.08152344 0.52207031 2.16304687 1.04414062 3.27734375 1.58203125 C16.71656553 8.03036043 30.29343516 14.14147339 44 20 C45.16402344 20.49862549 45.16402344 20.49862549 46.3515625 21.00732422 C114.84832408 49.9636351 194.59441523 59.852982 268 48 C268.6637262 47.89345093 269.32745239 47.78690186 270.0112915 47.67712402 C298.52573802 43.04632875 326.05444626 35.36815934 353 25 C353.79825195 24.69739258 354.59650391 24.39478516 355.41894531 24.08300781 C370.33680468 18.39228895 384.70876357 11.19426501 397.96875 2.27734375 C402.41269348 -0.51721302 406.91567896 -0.49318811 412 0 C416.13098667 1.74419437 418.76586028 4.11094196 421 8 C421.92932829 12.27786037 421.88575276 16.04840367 420.05859375 20.07421875 C414.33954906 27.75675018 404.30605587 31.7315616 396 36 C394.66914031 36.69897029 393.33840336 37.39817435 392.0078125 38.09765625 C388.04636657 40.15382086 384.03852533 42.10017103 380 44 C378.90703613 44.51530273 378.90703613 44.51530273 377.79199219 45.04101562 C297.58868308 82.29894351 205.81351283 87.73843965 51.0625 52.625 C48.09731355 51.52395469 45.14480165 50.39654128 42.19824219 49.24658203 C39.89964778 48.35065661 37.59480666 47.47069696 35.28613281 46.60107422 C32.03509898 45.37601068 28.80303916 44.10904897 25.57931519 42.81390381 C23.73934542 42.08309231 21.88647558 41.38502506 20.03344727 40.68798828 C11.94019207 37.34551402 11.94019207 37.34551402 9.45849609 33.79394531 C8.39448723 31.21846156 7.67472348 28.70252276 7 26 C6.36891097 24.11396979 5.72807312 22.23117702 5.078125 20.3515625 C4.46487096 18.44395101 3.85550957 16.53508384 3.25 14.625 C2.93417969 13.65433594 2.61835937 12.68367188 2.29296875 11.68359375 C1.99519531 10.74902344 1.69742188 9.81445312 1.390625 8.8515625 C1.12282227 8.01447754 0.85501953 7.17739258 0.57910156 6.31494141 C0 4 0 4 0 0 Z " fill="#7E41F9" transform="translate(864,1063)"/>
<path d="M0 0 C0.87305786 0.00093658 1.74611572 0.00187317 2.64562988 0.00283813 C77.88168491 0.17652825 156.35099286 17.96027337 222.28417969 54.89355469 C224.94439392 56.36405275 227.62981831 57.7809984 230.3203125 59.1953125 C249.2863764 69.21192243 267.39535927 80.40703232 284.625 93.1875 C285.62273437 93.92226563 286.62046875 94.65703125 287.6484375 95.4140625 C290.65820721 97.64966572 293.64518245 99.91213995 296.625 102.1875 C297.21909668 102.63802734 297.81319336 103.08855469 298.42529297 103.55273438 C300.31042017 104.9857634 302.18730587 106.42900494 304.0625 107.875 C304.64193359 108.31448975 305.22136719 108.75397949 305.81835938 109.20678711 C310.15825218 112.58232946 314.58626812 116.19115804 316.4375 121.53125 C316.87630207 126.5774738 316.77654336 129.95261361 313.625 134.1875 C310.40256942 136.85347994 307.41274548 138.03886878 303.3125 138.8125 C294.98051182 137.40029861 288.82071557 131.64698593 282.57275391 126.28369141 C275.64226099 120.39635829 268.11931701 115.32239867 260.625 110.1875 C259.65941162 109.52186035 259.65941162 109.52186035 258.67431641 108.84277344 C248.93170512 102.14456948 238.91027062 96.01503646 228.625 90.1875 C227.81208496 89.72617676 226.99916992 89.26485352 226.16162109 88.78955078 C157.29840217 49.94464429 80.61789635 27.9316611 1.3125 28 C0.44558533 27.9992749 -0.42132935 27.9985498 -1.31451416 27.99780273 C-14.58099721 27.99902099 -27.68166064 28.53050773 -40.8984375 29.75 C-54.8377445 30.9701028 -54.8377445 30.9701028 -59.8125 28.4375 C-62.94665294 25.68556084 -65.11207277 23.77690692 -65.80859375 19.56640625 C-65.8190779 12.00733612 -65.8190779 12.00733612 -63.75 8.1875 C-58.39892015 3.6813275 -53.30509469 2.63135414 -46.5625 2.0625 C-45.82580078 1.98902344 -45.08910156 1.91554688 -44.33007812 1.83984375 C-29.56846615 0.44098775 -14.8199789 -0.0207996 0 0 Z " fill="#8043FA" transform="translate(262.375,832.8125)"/>
<path d="M0 0 C0.99467285 0.04785645 1.9893457 0.09571289 3.01416016 0.14501953 C70.54982246 3.60106523 135.31196867 28.36468814 187.34765625 71.79296875 C189.25442458 73.37960219 191.18150047 74.94194719 193.12109375 76.48828125 C194.13300781 77.29652344 195.14492188 78.10476563 196.1875 78.9375 C197.57001953 80.03384766 197.57001953 80.03384766 198.98046875 81.15234375 C199.64691406 81.76207031 200.31335938 82.37179687 201 83 C201 83.66 201 84.32 201 85 C201.57274658 85.2482251 202.14549316 85.4964502 202.7355957 85.75219727 C205.34704822 87.19124135 207.11907661 88.86008748 209.23046875 90.96484375 C210.02888184 91.75914795 210.82729492 92.55345215 211.64990234 93.37182617 C212.48730957 94.21849854 213.3247168 95.0651709 214.1875 95.9375 C215.04811035 96.80415283 215.9087207 97.67080566 216.79541016 98.5637207 C221.76052027 103.60672045 226.52045351 108.65161821 230.859375 114.24609375 C232.49573021 116.35125876 234.16086447 118.38410448 235.890625 120.41015625 C272.52596301 163.65325073 272.52596301 163.65325073 272.28125 182.6796875 C271.72167581 187.29617461 269.20493034 189.99589138 265.75 192.875 C262.0550297 194.38657876 258.93822962 194.58433082 255 194 C248.73855833 191.29619564 245.76115131 185.78981781 242.625 180 C234.3811592 165.20268948 224.61490327 151.18655509 214 138 C213.31164062 137.11957031 212.62328125 136.23914062 211.9140625 135.33203125 C201.75593724 122.54940895 190.34639635 110.67686872 178 100 C177.4112207 99.4829248 176.82244141 98.96584961 176.21582031 98.43310547 C164.73686242 88.40601989 152.39838544 79.92283972 139.59619141 71.67529297 C137.51473996 70.33215588 135.44728613 68.97238661 133.38671875 67.59765625 C93.53816735 41.78846203 42.50788961 27.77864868 -4.8125 27.8125 C-5.8847583 27.81258057 -6.9570166 27.81266113 -8.06176758 27.81274414 C-20.78491455 27.90159946 -33.44963637 28.90234716 -46 31 C-56.05298013 32.04635762 -56.05298013 32.04635762 -60.296875 29.765625 C-63.80342778 26.83866772 -65.59602009 24.63865356 -66.30859375 19.984375 C-66.55506266 15.71224726 -66.30882147 12.65182138 -63.75 9.125 C-56.23388833 1.83996255 -42.64521302 2.19342897 -32.8125 1.3125 C-32.12658783 1.24962799 -31.44067566 1.18675598 -30.73397827 1.12197876 C-20.45671926 0.18621507 -10.32179908 -0.54303017 0 0 Z " fill="#864BFC" transform="translate(269,1016)"/>
<path d="M0 0 C1.31967378 1.13756379 2.63289134 2.28268983 3.9375 3.4375 C4.52402344 3.8603125 5.11054687 4.283125 5.71484375 4.71875 C22.11616242 16.9174632 26.8450214 39.56628499 29.9375 58.4375 C30.74291401 63.2720422 31.55652451 68.10515258 32.375 72.9375 C32.6848584 74.7791272 32.6848584 74.7791272 33.00097656 76.65795898 C34.61808872 86.07132631 36.6725983 95.31501544 39.01953125 104.5703125 C39.9375 108.4375 39.9375 108.4375 39.9375 111.4375 C31.27083333 113.4375 22.60416667 115.4375 13.9375 117.4375 C11.31742192 110.14314061 9.60264209 102.84025995 8.0625 95.25 C7.8042041 93.99711182 7.5459082 92.74422363 7.27978516 91.45336914 C5.91485235 84.75211819 4.67048337 78.04021121 3.578125 71.2890625 C3.47011566 70.6232164 3.36210632 69.9573703 3.25082397 69.27134705 C2.73682151 66.07957171 2.23953139 62.88620093 1.76220703 59.6887207 C-0.57583061 44.69028171 -4.66996543 32.28305997 -16.48828125 22.23046875 C-28.50100103 13.86349094 -43.02084515 12.78824016 -57.1484375 14.8984375 C-59.58359956 15.56830409 -61.76719251 16.38515314 -64.0625 17.4375 C-64.97257813 17.85128906 -65.88265625 18.26507812 -66.8203125 18.69140625 C-78.29736854 24.42993427 -85.6907296 32.96309126 -90.375 44.8125 C-101.43968967 81.58898903 -80.57804265 139.58177852 -68.30078125 174.48828125 C-66.67936304 179.39249448 -66.42230893 182.01250617 -68.6015625 186.86328125 C-69.2895275 188.16277069 -69.9852757 189.45816035 -70.6875 190.75 C-74.87584563 198.74457029 -78.07642056 206.93169795 -81.0625 215.4375 C-81.7225 215.4375 -82.3825 215.4375 -83.0625 215.4375 C-135.43654392 79.42216406 -135.43654392 79.42216406 -114.33203125 30.28125 C-108.49752543 17.51547063 -100.52149437 7.64131206 -89.0625 -0.5625 C-88.14791016 -1.25085938 -88.14791016 -1.25085938 -87.21484375 -1.953125 C-62.58212837 -19.06068118 -23.73727068 -18.17573697 0 0 Z " fill="#7737F5" transform="translate(696.0625,602.5625)"/>
<path d="M0 0 C1.02947754 0.48533203 2.05895508 0.97066406 3.11962891 1.47070312 C6.47879215 3.05715213 9.83413141 4.65134084 13.1875 6.25 C14.2276123 6.74564453 15.26772461 7.24128906 16.33935547 7.75195312 C35.28821169 16.86900035 35.28821169 16.86900035 38 23 C38.80686992 27.72231239 38.46092129 31.04270194 36.375 35.375 C32.85710683 39.26319772 29.9546915 40.85223558 24.70581055 41.24902344 C20.59787934 40.97297825 18.17363988 40.00176767 14.51953125 38.140625 C13.91782608 37.84031372 13.31612091 37.54000244 12.69618225 37.23059082 C11.40342208 36.58458778 10.11354113 35.93279609 8.82635498 35.27575684 C5.36848451 33.51449085 1.88485638 31.80563548 -1.59765625 30.09375 C-2.30533142 29.74495789 -3.01300659 29.39616577 -3.74212646 29.0368042 C-61.92101607 0.49681464 -125.40985994 -17.72244546 -189.4375 -26.875 C-190.96109634 -27.09342056 -190.96109634 -27.09342056 -192.51547241 -27.31625366 C-211.19929973 -29.96582501 -229.93759914 -32.07405539 -248.8125 -32.625 C-249.98353271 -32.66222168 -251.15456543 -32.69944336 -252.36108398 -32.73779297 C-268.88617367 -33.22104133 -285.35644467 -33.15912048 -301.875 -32.5 C-306.24986482 -32.32954666 -310.62482291 -32.16224644 -315 -32 C-315.96921387 -31.96310059 -316.93842773 -31.92620117 -317.93701172 -31.88818359 C-320.56222781 -31.79819992 -323.18625682 -31.73741474 -325.8125 -31.6875 C-326.56450684 -31.65785156 -327.31651367 -31.62820313 -328.09130859 -31.59765625 C-333.21805957 -31.54086326 -336.11253342 -32.68199788 -340 -36 C-342.93210394 -40.22019584 -342.60823165 -45.06396622 -342 -50 C-340.13116578 -54.28274509 -338.69203807 -55.6351072 -334.5625 -57.8125 C-261.08869524 -81.1286608 -147.17440289 -52.52246332 0 0 Z " fill="#7A3BF7" transform="translate(539,710)"/>
<path d="M0 0 C0.94786377 0.00491455 1.89572754 0.0098291 2.87231445 0.01489258 C44.4681445 0.68662648 85.10332992 17.62031416 116.6875 44.3125 C117.50565186 44.99747559 117.50565186 44.99747559 118.34033203 45.69628906 C129.20948439 54.80584346 138.93056971 64.09623701 147.6875 75.3125 C148.10902344 75.84697754 148.53054688 76.38145508 148.96484375 76.93212891 C178.72258485 114.93506014 193.21344932 162.3275481 188.26171875 210.453125 C186.43281288 223.57928733 182.08183859 244.44632845 172.0625 253.75 C167.57371684 256.70314681 163.99167501 256.93757113 158.6875 256.3125 C154.61116128 254.42530615 153.04881848 252.91858262 150.75 249.0625 C148.79898302 242.17655772 150.69288523 236.68003123 153.5 230.3125 C166.19252292 200.30192143 163.4922438 166.92131828 151.64453125 137.08203125 C140.96389338 111.00423451 124.64292938 86.33314611 102.6875 68.3125 C101.7490625 67.53777344 100.810625 66.76304688 99.84375 65.96484375 C69.17759078 41.53258811 33.39202381 26.75991466 -6.17700195 28.4597168 C-13.13948193 28.67946371 -17.39558507 28.09102111 -23.3125 24.3125 C-26.17320189 21.27300425 -26.58668078 18.48623798 -26.875 14.4375 C-26.70308622 9.83021071 -25.6766348 6.97763466 -22.32519531 3.76879883 C-16.3316864 -0.56784366 -7.11457534 -0.0447376 0 0 Z " fill="#8B50FE" transform="translate(262.3125,1138.6875)"/>
<path d="M0 0 C1.38988986 0.54653698 2.7821438 1.08710633 4.17687988 1.62115479 C18.67970369 7.20394748 18.67970369 7.20394748 22.30133057 14.01870728 C23.64461492 18.93686128 22.80153519 23.01829802 20.55133057 27.51870728 C17.97727629 30.37876758 16.02225268 31.68843548 12.24176025 32.41397095 C4.6791962 32.69801473 -1.54278601 30.11073327 -8.38238525 27.20581055 C-12.00086435 25.67420435 -15.64688306 24.21104644 -19.29241943 22.74526978 C-20.05588684 22.43746078 -20.81935425 22.12965179 -21.60595703 21.81251526 C-44.66329489 12.58684685 -68.44731779 5.04172257 -92.48626709 -1.15219116 C-95.51411609 -1.93366063 -98.53430387 -2.73981629 -101.55413818 -3.55160522 C-141.43897695 -14.09701053 -182.59257365 -20.01328805 -223.69866943 -22.98129272 C-224.36187195 -23.03001526 -225.02507446 -23.07873779 -225.70837402 -23.12893677 C-238.42197962 -24.03567801 -251.11520257 -24.13597735 -263.85736084 -24.11166382 C-267.19383282 -24.1063005 -270.53017024 -24.1116451 -273.86663818 -24.11801147 C-284.88760156 -24.12132778 -295.85380235 -23.95927656 -306.85198975 -23.22616577 C-325.56548486 -22.03489669 -325.56548486 -22.03489669 -331.69866943 -26.98129272 C-334.61250336 -30.00624744 -335.15196288 -32.18773307 -335.19866943 -36.35629272 C-335.09028897 -40.04615475 -334.84237687 -42.57983624 -332.57366943 -45.54379272 C-327.39061998 -49.93811726 -321.89228914 -50.3245727 -315.30413818 -50.61410522 C-314.08688805 -50.67672043 -314.08688805 -50.67672043 -312.845047 -50.74060059 C-310.19246847 -50.87295188 -307.53953934 -50.9909598 -304.88616943 -51.10629272 C-303.97129761 -51.14798584 -303.05642578 -51.18967896 -302.11383057 -51.2326355 C-219.3036313 -54.97003275 -136.1023921 -44.76545441 0 0 Z " fill="#7839F6" transform="translate(531.6986694335938,639.9812927246094)"/>
<path d="M0 0 C6.06163617 5.34569489 7.57775401 12.99548451 9.75 20.5 C9.9617688 21.21607422 10.1735376 21.93214844 10.39172363 22.66992188 C23.78531254 68.00130222 32.49235936 114.85195202 36 162 C36.08685059 163.0828125 36.17370117 164.165625 36.26318359 165.28125 C37.31588129 180.24959062 37.24579208 195.25205382 37.25 210.25 C37.25044186 210.9720248 37.25088371 211.69404961 37.25133896 212.43795395 C37.25870125 235.41535941 36.77989719 258.16673689 34 281 C33.8691803 282.10269226 33.8691803 282.10269226 33.73571777 283.22766113 C31.71808068 300.21585741 29.17035492 317.08641472 25.875 333.875 C25.63354248 335.11693115 25.39208496 336.3588623 25.14331055 337.63842773 C24.90781494 338.78641846 24.67231934 339.93440918 24.4296875 341.1171875 C24.22585449 342.11347168 24.02202148 343.10975586 23.81201172 344.13623047 C22.62444425 348.32449456 21.18864094 351.91941733 17.9375 354.875 C13.57794506 356.54461678 9.60671031 356.64966427 5 356 C0.90836902 354.14016774 -0.60891912 352.64339112 -2.9375 348.8125 C-5.04309296 341.25713703 -2.50410371 333.17012416 -1.03222656 325.61376953 C8.11534498 278.53424872 11.1629877 230.76681357 9.5 182.875 C9.45155172 181.41537356 9.40337402 179.95573811 9.35546875 178.49609375 C9.24055796 174.99725817 9.12019982 171.49867338 9 168 C15.6 168 22.2 168 29 168 C28.49887695 166.42669922 27.99775391 164.85339844 27.48144531 163.23242188 C17.68593965 132.46923843 7.93472438 101.69287036 -1.6875 70.875 C-1.89122726 70.2226236 -2.09495453 69.57024719 -2.30485535 68.89810181 C-5.93572418 57.27083382 -5.93572418 57.27083382 -7.57962036 51.97686768 C-9.34471019 46.29331961 -11.11869506 40.61315604 -12.92946529 34.94400597 C-13.78116207 32.27461198 -14.62642725 29.60320253 -15.47101784 26.93155289 C-16.06599482 25.05830227 -16.66992278 23.18790205 -17.27409363 21.31759644 C-17.63199478 20.18298981 -17.98989594 19.04838318 -18.35864258 17.87939453 C-18.67642166 16.88602081 -18.99420074 15.89264709 -19.3216095 14.86917114 C-20.0563816 11.76154079 -20.26413326 9.1818239 -20 6 C-17.74318432 2.54839955 -15.87585523 0.47773922 -12.25 -1.5 C-7.89458606 -2.17006368 -3.99921683 -1.94744472 0 0 Z " fill="#864BFC" transform="translate(904,1118)"/>
<path d="M0 0 C0.84393311 0.34546875 1.68786621 0.6909375 2.55737305 1.046875 C15.41446291 6.42907227 27.90320103 12.66440223 40.375 18.875 C41.15746094 19.26155762 41.93992187 19.64811523 42.74609375 20.04638672 C84.71014044 40.91415152 121.1806756 71.7778303 154.25 104.5625 C155.11761963 105.41706787 155.98523926 106.27163574 156.87915039 107.15209961 C162.05276924 112.31878531 166.79806996 117.6759365 171.36962891 123.3815918 C173.43794622 125.95326512 175.58436482 128.43290009 177.77124023 130.90307617 C184.64327185 138.69220488 190.72217831 146.96365027 196.67236328 155.46923828 C198.45755236 157.99164338 200.28637313 160.47828332 202.12109375 162.96484375 C203.33169571 164.64253215 204.54135763 166.32089932 205.75 168 C206.61709595 169.15375122 206.61709595 169.15375122 207.50170898 170.33081055 C210.06046112 173.94792156 211.34448831 176.05379966 211.51171875 180.5546875 C211.08105469 182.52685547 211.08105469 182.52685547 210.375 184.875 C210.06208008 185.91672363 209.74916016 186.95844727 209.42675781 188.03173828 C208.27569263 191.66638994 207.05516703 195.2706947 205.8125 198.875 C205.38276298 200.13908497 204.95372069 201.40340635 204.52539062 202.66796875 C203.48205272 205.73936798 202.4317602 208.80819848 201.375 211.875 C200.715 211.875 200.055 211.875 199.375 211.875 C198.16088867 210.15698242 198.16088867 210.15698242 196.79296875 207.73046875 C196.27959961 206.83505371 195.76623047 205.93963867 195.23730469 205.01708984 C194.68461914 204.0420752 194.13193359 203.06706055 193.5625 202.0625 C184.82984575 186.97014213 175.07581558 172.64201081 164.375 158.875 C163.7459375 158.06417969 163.116875 157.25335937 162.46875 156.41796875 C158.4520624 151.32303099 154.2778167 146.36814701 150.0625 141.4375 C149.54647217 140.83373535 149.03044434 140.2299707 148.4987793 139.60791016 C145.71575972 136.35533165 145.71575972 136.35533165 142.71020508 133.31225586 C141.375 131.875 141.375 131.875 141.375 129.875 C140.385 129.545 139.395 129.215 138.375 128.875 C136.9375 127.4140625 136.9375 127.4140625 135.375 125.5 C128.99634683 117.98856276 121.94362037 111.05822707 114.4453125 104.66796875 C111.9922589 102.54353176 109.62796853 100.33311363 107.25 98.125 C95.42714869 87.37253029 82.42239566 78.07107393 69.375 68.875 C68.76640137 68.44364746 68.15780273 68.01229492 67.53076172 67.56787109 C41.99655952 49.59185066 12.93536341 34.02398688 -16.5078125 23.46484375 C-20.84670605 21.25189929 -23.62910819 18.43654865 -25.4375 13.78515625 C-25.94846273 8.75004435 -25.3543368 5.3101723 -22.625 0.875 C-15.52403268 -5.32919567 -7.98098882 -3.33862466 0 0 Z " fill="#8346FB" transform="translate(418.625,924.125)"/>
<path d="M0 0 C4.5282206 2.30682936 6.66831885 4.56070792 9 9 C9.88793945 11.82958984 9.88793945 11.82958984 10.61328125 14.9609375 C11.02634521 16.72667114 11.02634521 16.72667114 11.44775391 18.52807617 C11.73312012 19.79756104 12.01848633 21.0670459 12.3125 22.375 C12.46273621 23.03448639 12.61297241 23.69397278 12.76776123 24.3734436 C21.23697542 61.5572473 27.10839864 98.9739413 30 137 C30.09571289 138.17449707 30.19142578 139.34899414 30.29003906 140.55908203 C31.3799522 155.8862297 31.24451479 171.26684044 31.25 186.625 C31.25058914 187.38020809 31.25117828 188.13541618 31.25178528 188.91350937 C31.2646705 212.33825859 30.85426346 235.59654938 28.23431396 258.89831543 C27.99048973 261.08530258 27.75915595 263.27336659 27.52978516 265.46191406 C27.07200976 269.79098432 26.57503574 274.11461129 26.0625 278.4375 C25.8444873 280.33302612 25.8444873 280.33302612 25.62207031 282.2668457 C24.65056706 289.71589313 23.58690048 296.62409367 17.875 302 C12.60112963 303.83438969 7.28477659 303.87502082 2.0625 301.875 C-1.16803562 298.93814944 -2.81222148 296.25409835 -3.18188477 291.81665039 C-3.21062937 284.17427202 -2.37591747 276.69615551 -1.40444946 269.1277771 C0.5532634 253.78355851 2.11056713 238.44679955 3 223 C3.06316406 221.93233398 3.12632812 220.86466797 3.19140625 219.76464844 C6.85847427 153.77692979 -0.0305256 86.18840788 -16.57836914 22.2097168 C-19.31366326 11.43724202 -19.31366326 11.43724202 -16.375 6.3125 C-12.63033714 0.39436149 -6.65802171 -1.1960518 0 0 Z " fill="#8549FC" transform="translate(972,1143)"/>
<path d="M0 0 C33.82951467 -0.6671714 67.31074898 9.56866453 92.9296875 32.12109375 C93.75984375 32.81847656 94.59 33.51585937 95.4453125 34.234375 C107.37487385 44.49454805 116.12709624 56.56922472 123.9296875 70.12109375 C124.49429688 71.09304688 125.05890625 72.065 125.640625 73.06640625 C134.37091896 89.27980932 138.04276318 107.12641576 140.9296875 125.12109375 C144.53057591 147.0147574 148.7895531 168.66869219 156.17553711 189.64257812 C156.9296875 192.12109375 156.9296875 192.12109375 156.9296875 195.12109375 C155.93710937 194.86714844 154.94453125 194.61320313 153.921875 194.3515625 C144.9602326 192.07566025 135.98666878 189.98909614 126.9296875 188.12109375 C120.35925612 169.13661725 116.54544148 149.49276762 113.4296875 129.68359375 C108.42345015 98.53389278 96.71551254 68.89061388 70.42578125 49.4609375 C44.03594609 30.81848105 13.92239208 24.9504448 -17.76171875 30.375 C-18.50566895 30.50406738 -19.24961914 30.63313477 -20.01611328 30.76611328 C-32.55078609 32.93219532 -32.55078609 32.93219532 -38.0703125 29.12109375 C-41.77258373 25.91912944 -42.90879916 23.8008325 -43.3828125 18.87109375 C-43.0216368 14.53698537 -42.05296992 11.34300176 -39.0703125 8.12109375 C-34.25282664 5.18235427 -29.34315568 4.08047862 -23.8828125 2.99609375 C-22.61207886 2.73844238 -22.61207886 2.73844238 -21.31567383 2.47558594 C-14.18782125 1.06980554 -7.25622868 0.28618714 0 0 Z " fill="#7332F4" transform="translate(646.0703125,526.87890625)"/>
<path d="M0 0 C4.82458087 4.15138354 6.14084556 8.32515748 7.3359375 14.48046875 C7.47352982 15.17921616 7.61112213 15.87796356 7.75288391 16.59788513 C8.2010436 18.89652793 8.6330167 21.197799 9.0625 23.5 C9.2897728 24.69855621 9.2897728 24.69855621 9.52163696 25.92132568 C14.78141651 53.70406899 18.35051035 81.50120578 20.890625 109.66015625 C20.99027306 110.74459267 20.99027306 110.74459267 21.0919342 111.85093689 C22.30461134 125.68700458 22.84861901 139.47554533 22.85546875 153.359375 C22.85870139 154.94712348 22.86206675 156.53487169 22.86555481 158.12261963 C22.87148467 161.43022345 22.87340138 164.73780141 22.87280273 168.04541016 C22.87272196 171.36870829 22.87959737 174.69186714 22.89331055 178.01513672 C22.96040017 194.57748925 22.91901598 211.10626667 21.86328125 227.640625 C21.79392868 228.80108337 21.72457611 229.96154175 21.65312195 231.15716553 C20.52312313 246.47687687 20.52312313 246.47687687 15.125 251.875 C10.50163539 253.80840702 6.61892578 254.37034528 1.6875 253.3125 C-1.73875454 251.2839594 -4.51954012 248.89841977 -6.3125 245.3125 C-6.41362975 242.59389424 -6.45116056 239.90595152 -6.4375 237.1875 C-6.44136719 236.47207031 -6.44523437 235.75664063 -6.44921875 235.01953125 C-6.44058116 229.98381468 -6.17990501 224.98912673 -5.84375 219.96484375 C-1.49932105 154.70858834 -5.60994001 87.92647794 -19.57177734 23.98657227 C-20.96988443 17.36339897 -21.70828923 11.97976506 -20.3125 5.3125 C-14.90274601 -1.55934967 -8.04094914 -4.09633258 0 0 Z " fill="#8448FB" transform="translate(1040.3125,1154.6875)"/>
<path d="M0 0 C5.68255136 2.57323081 7.65040264 6.48222123 10 12 C11.29188876 15.62729388 12.38235865 19.29761682 13.4375 23 C13.7375293 24.04744385 14.03755859 25.0948877 14.34667969 26.17407227 C17.47470737 37.34333441 19.99579878 48.57699397 22 60 C22.2477417 61.38203613 22.2477417 61.38203613 22.50048828 62.79199219 C27.33738039 91.09306306 27.46589737 122.81833251 22 151 C21.83902832 151.89847656 21.67805664 152.79695313 21.51220703 153.72265625 C17.51720315 175.7968756 10.40588167 196.72745602 0.75 216.9375 C0.45199493 217.56827454 0.15398987 218.19904907 -0.15304565 218.84893799 C-1.00819037 220.64513963 -1.88650506 222.43025389 -2.765625 224.21484375 C-3.26868164 225.23698975 -3.77173828 226.25913574 -4.29003906 227.31225586 C-6.57244581 230.89977955 -9.14870254 233.41080446 -13.24609375 234.71484375 C-18.37088856 235.23554483 -21.60921745 235.06333666 -26 232 C-28.72166924 229.35188939 -29.86265324 227.4377928 -31 223.8125 C-31 217.11462262 -27.88327997 211.78459338 -24.97265625 205.87109375 C2.49064783 149.80167707 4.67348885 83.70752605 -15.10717773 24.69702148 C-15.80619578 22.67700263 -16.51631497 20.66075978 -17.24194336 18.65014648 C-18.40224458 14.59376331 -18.4276904 10.98121665 -17 7 C-12.01965499 0.84009959 -7.69243541 -1.02741432 0 0 Z " fill="#8B51FE" transform="translate(549,1222)"/>
<path d="M0 0 C8.91 0 17.82 0 27 0 C32.78563271 64.36516393 25.23830037 128.00862802 4.3125 189.1875 C3.95631592 190.23188232 3.60013184 191.27626465 3.2331543 192.35229492 C-2.46559525 208.53800682 -2.46559525 208.53800682 -7.1875 213.125 C-12.4870825 214.773759 -17.76797823 214.90230667 -22.9375 212.8125 C-25.97860796 210.14001119 -27.74491768 208.06225926 -28.2565918 203.92553711 C-28.45863773 196.76056509 -26.6267948 191.22734054 -24 184.625 C-1.59853119 125.25333707 3.67206989 62.88419694 0 0 Z " fill="#8B50FE" transform="translate(729,1286)"/>
<path d="M0 0 C1.36151111 0.00192663 2.72302235 0.00376683 4.08453369 0.00552368 C47.1463947 0.08602335 89.78694779 3.65673262 132.25 10.875 C133.93512695 11.1531958 133.93512695 11.1531958 135.65429688 11.43701172 C148.43444757 13.75107207 148.43444757 13.75107207 152.59765625 19.13671875 C154.49089336 24.54434811 154.55899148 29.01448712 152.1875 34.3125 C148.5547156 38.4642536 145.77529265 39.66384502 140.34655762 40.22518921 C136.87463153 40.36559149 133.54405111 39.8419877 130.140625 39.23828125 C129.00617195 39.05252785 129.00617195 39.05252785 127.84880066 38.86302185 C126.22368148 38.59690591 124.59927613 38.32639966 122.97555542 38.05187988 C118.60969105 37.31757769 114.23686094 36.62803791 109.86328125 35.94140625 C108.97008682 35.80108978 108.0768924 35.66077332 107.15663147 35.51620483 C93.21713663 33.35557958 79.20579966 31.84672423 65.16668701 30.50390625 C63.33590362 30.32685204 61.50603547 30.14040184 59.67626953 29.953125 C40.81646823 28.07636112 21.93447232 28.13368873 3 28.125 C1.7301123 28.12391235 0.46022461 28.12282471 -0.84814453 28.1217041 C-17.64954614 28.11645248 -17.64954614 28.11645248 -34.43994141 28.65380859 C-35.66675125 28.71203293 -36.8935611 28.77025726 -38.157547 28.83024597 C-40.4773127 28.94781245 -42.79639763 29.08011221 -45.11430359 29.22993469 C-52.5286387 29.61369618 -57.34534988 29.15734112 -63.25 24.3125 C-65.6492816 19.70587932 -65.67656493 15.3926059 -64.8125 10.3125 C-63.15661019 6.87856457 -60.92675013 4.83622692 -57.44352722 3.19902039 C-54.84841886 2.3246028 -52.62552028 1.92418403 -49.90356445 1.69067383 C-48.94604782 1.60830978 -47.98853119 1.52594574 -47.0019989 1.44108582 C-45.96622208 1.36384781 -44.93044525 1.2866098 -43.86328125 1.20703125 C-42.76510574 1.12314651 -41.66693024 1.03926178 -40.53547668 0.95283508 C-27.03172031 0.00804545 -13.53097922 -0.03820655 0 0 Z " fill="#7737F6" transform="translate(261.8125,526.6875)"/>
<path d="M0 0 C8.91 0 17.82 0 27 0 C28.12562241 13.50746891 28.12562241 13.50746891 28.14526367 18.65698242 C28.15164352 19.81667038 28.15802338 20.97635834 28.16459656 22.17118835 C28.16570938 23.38700089 28.1668222 24.60281342 28.16796875 25.85546875 C28.17296135 27.80529411 28.17296135 27.80529411 28.17805481 29.79450989 C28.18399849 32.53676176 28.18590008 35.27898239 28.18530273 38.02124023 C28.18522216 40.77553981 28.19206186 43.52967062 28.20581055 46.28393555 C28.32122401 69.80812909 27.1965468 93.02197012 23.75 116.3125 C23.5904332 117.40913467 23.5904332 117.40913467 23.42764282 118.52792358 C19.29279596 146.7625439 12.90742499 175.04829858 3.8125 202.125 C3.59916016 202.78717529 3.38582031 203.44935059 3.16601562 204.1315918 C1.39371285 209.10381134 -1.3339047 211.66695235 -6 214 C-10.64304187 214.56645111 -14.12513117 214.42123314 -18.375 212.375 C-22.24301142 208.87537062 -23.88124685 205.99023701 -24.19384766 200.7512207 C-23.98862266 196.77983277 -23.20483544 193.58539113 -22.0234375 189.79296875 C-21.59847247 188.40147268 -21.17358977 187.00995147 -20.7487793 185.6184082 C-20.52443207 184.89626129 -20.30008484 184.17411438 -20.06893921 183.43008423 C-6.85173535 140.71641056 0.05883594 96.71801143 1 52 C1.01659668 51.26620117 1.03319336 50.53240234 1.05029297 49.77636719 C1.36784944 33.1928624 0.53276117 16.57267768 0 0 Z " fill="#8A50FE" transform="translate(790,1286)"/>
<path d="M0 0 C12.88786104 7.23835621 24.89388751 15.80449775 36.38671875 25.078125 C37.39476562 25.88121094 38.4028125 26.68429687 39.44140625 27.51171875 C53.01025765 38.52643342 65.86738159 51.10467714 76.38671875 65.078125 C77.35521397 66.3179074 78.32398364 67.55747544 79.29296875 68.796875 C80.30512176 70.11846367 81.3155527 71.44137308 82.32421875 72.765625 C82.79786865 73.37172607 83.27151855 73.97782715 83.75952148 74.60229492 C87.0236873 78.98044565 88.50780681 82.66469924 89.38671875 88.078125 C87.97411868 92.7867919 86.1541224 95.9183671 82.38671875 99.078125 C79.96137606 100.29079634 78.28045321 100.27943712 75.57421875 100.328125 C74.72214844 100.35390625 73.87007812 100.3796875 72.9921875 100.40625 C69.10982534 99.91731683 66.66330248 98.54701843 64.07885742 95.57324219 C62.63528514 93.68820809 61.25671173 91.76726271 59.88671875 89.828125 C46.86796321 71.97406387 32.14503611 56.2451966 14.38671875 43.078125 C13.80100098 42.64226074 13.2152832 42.20639648 12.61181641 41.75732422 C-12.13759318 23.446452 -39.87451284 9.35624073 -69.89453125 1.99609375 C-70.57475342 1.82819336 -71.25497559 1.66029297 -71.95581055 1.48730469 C-73.79126735 1.04783232 -75.6337411 0.63795731 -77.4765625 0.23046875 C-81.23072213 -1.14870571 -83.06496029 -2.872245 -85.61328125 -5.921875 C-87.40812666 -11.30641124 -87.44635678 -16.12243186 -85.05078125 -21.296875 C-68.56167458 -39.05437449 -16.86031221 -9.18546758 0 0 Z " fill="#6E2BF2" transform="translate(1205.61328125,597.921875)"/>
<path d="M0 0 C8.25 0 16.5 0 25 0 C29.0757399 12.2272197 27.20053884 27.80954486 27.1875 40.5625 C27.18659363 42.19662842 27.18659363 42.19662842 27.18566895 43.86376953 C27.15990993 60.99037342 26.76336472 77.9509465 25 95 C24.87109375 96.27552734 24.7421875 97.55105469 24.609375 98.86523438 C21.90177489 125.17128473 17.50479492 151.15006763 11.375 176.875 C11.09809326 178.03870117 10.82118652 179.20240234 10.53588867 180.40136719 C5.88355347 199.24201676 5.88355347 199.24201676 1.1875 203.625 C-3.9240818 205.82999607 -7.29444804 206.52033789 -12.6875 204.875 C-16.39824695 202.7745772 -18.05694265 201.80839242 -20 198 C-20.99825628 189.40907783 -19.21010798 181.60179229 -16.92370605 173.36660767 C-6.26284865 134.67149001 -0.67391558 93.46865455 -0.92483521 53.33171463 C-0.93792099 51.22116349 -0.94419122 49.11067701 -0.94897461 47.00009155 C-0.96021608 42.54169763 -0.97954384 38.08335984 -1 33.625 C-1.02367433 28.40286045 -1.04395657 23.18074905 -1.05593872 17.95856857 C-1.06240783 15.88116181 -1.07489661 13.80384728 -1.08764648 11.72647095 C-1.09260132 9.85213882 -1.09260132 9.85213882 -1.09765625 7.93994141 C-1.10551147 6.28691513 -1.10551147 6.28691513 -1.11352539 4.60049438 C-1 2 -1 2 0 0 Z " fill="#894FFE" transform="translate(853,1286)"/>
<path d="M0 0 C3.44265519 0.01138236 6.88500066 0.00460542 10.3276453 -0.00687027 C33.84036981 -0.07347377 57.09189825 1.24822012 80.38598633 4.51074219 C81.53068893 4.66831497 81.53068893 4.66831497 82.69851685 4.82907104 C94.05770811 6.40114835 105.36327122 8.21930567 116.63598633 10.32324219 C118.56317505 10.67273926 118.56317505 10.67273926 120.52929688 11.02929688 C131.62459505 13.19768069 131.62459505 13.19768069 136.19848633 17.26074219 C139.45032833 22.7154449 139.64622275 26.27676498 138.19848633 32.26074219 C136.0883665 35.49625925 134.41757459 37.11468335 131.19848633 39.26074219 C122.90933286 40.17686888 114.90838455 38.6921821 106.82348633 37.01074219 C59.50986185 27.75781625 11.35546564 25.75021368 -36.69213867 28.65917969 C-37.70783936 28.71799316 -38.72354004 28.77680664 -39.77001953 28.83740234 C-41.59220675 28.94846363 -43.41358562 29.074386 -45.23339844 29.21923828 C-51.46379878 29.61089604 -55.29966124 28.36756529 -60.17651367 24.26074219 C-62.66189096 19.67235335 -62.67632064 15.36004434 -61.80151367 10.26074219 C-59.8240602 6.30583524 -56.84441408 3.94831165 -52.80151367 2.26074219 C-49.24905914 1.61641936 -45.64619749 1.42053247 -42.04760742 1.15136719 C-40.40193031 1.02523041 -40.40193031 1.02523041 -38.7230072 0.89654541 C-25.82543779 0.00028345 -12.92193315 -0.04303025 0 0 Z " fill="#7D3FF8" transform="translate(258.801513671875,710.7392578125)"/>
<path d="M0 0 C12.10161216 5.30395862 22.92963831 11.9087251 33.18725586 20.26342773 C34.56010742 21.3249707 34.56010742 21.3249707 35.96069336 22.40795898 C36.88108398 23.12338867 37.80147461 23.83881836 38.74975586 24.57592773 C39.59666992 25.23206055 40.44358398 25.88819336 41.31616211 26.56420898 C41.93362305 27.12495117 42.55108398 27.68569336 43.18725586 28.26342773 C43.18725586 28.92342773 43.18725586 29.58342773 43.18725586 30.26342773 C44.06897461 30.64821289 44.06897461 30.64821289 44.96850586 31.04077148 C63.1912977 41.08255642 75.21988825 71.32776124 81.18725586 90.26342773 C85.37503842 104.85523258 87.27857934 122.39766866 83.18725586 137.26342773 C80.96787118 140.64692463 79.04192854 142.90908328 75.18725586 144.26342773 C70.53155241 144.99141046 67.04353898 144.6915693 62.81225586 142.57592773 C59.72160228 139.85320911 57.42849607 137.56813332 56.98217773 133.30419922 C56.96348585 130.97212729 57.0313332 128.65616248 57.12475586 126.32592773 C57.56993555 101.36729756 49.12994324 76.90038385 32.18725586 58.26342773 C31.46795898 57.42682617 30.74866211 56.59022461 30.00756836 55.72827148 C14.92489607 38.42755916 -3.68904052 27.01618334 -25.77368164 21.08374023 C-30.84111364 19.7159244 -34.53270214 18.60911292 -38.25024414 14.70092773 C-40.34421407 10.09419388 -40.49591993 6.24561213 -39.81274414 1.26342773 C-38.531411 -1.90618583 -37.29272084 -3.31477456 -34.75024414 -5.54907227 C-23.69866489 -10.01673196 -10.36841727 -4.36767244 0 0 Z " fill="#8C52FF" transform="translate(305.812744140625,1208.736572265625)"/>
<path d="M0 0 C8.91 0 17.82 0 27 0 C36.06084201 58.89547308 27.13939881 121.12898699 1.88720703 175.09960938 C1.09619666 176.79394749 0.32592951 178.49793443 -0.44140625 180.203125 C-3.01150425 185.71393073 -5.40601127 189.20300564 -11 192 C-15.64304187 192.56645111 -19.12513117 192.42123314 -23.375 190.375 C-26.40413901 187.63435042 -27.74921838 185.89949563 -29 182 C-29.16780025 174.84503359 -26.54510935 169.16236884 -23.4375 162.875 C-5.67642377 125.36697852 2.22560498 84.54145954 2.1875 43.1875 C2.1882251 42.38261139 2.1889502 41.57772278 2.18969727 40.7484436 C2.18833854 27.04615554 1.40838426 13.64372254 0 0 Z " fill="#8B51FE" transform="translate(605,1286)"/>
<path d="M0 0 C4.3244409 1.74817823 5.88186354 3.9306493 8 8 C8.78027344 11.06298828 8.78027344 11.06298828 9.359375 14.5703125 C9.52426674 15.54939072 9.52426674 15.54939072 9.69248962 16.54824829 C10.05693238 18.73872614 10.40425873 20.93149732 10.75 23.125 C11.00491044 24.70085505 11.25987622 26.27670115 11.51489258 27.85253906 C14.93945242 49.26620556 17.88992065 70.75352394 20.6472168 92.26220703 C20.95870848 94.67955493 21.27760906 97.09575394 21.59960938 99.51171875 C24.03850167 118.29399274 24.27462934 136.95684209 24.3125 155.875 C24.31635712 157.0957019 24.32021423 158.31640381 24.32418823 159.57409668 C24.32966915 163.08864173 24.31864702 166.60269053 24.30078125 170.1171875 C24.30153656 171.16697784 24.30229187 172.21676819 24.30307007 173.29837036 C24.23318415 180.73998175 24.15834421 188.54664926 20.125 195 C16.2086041 198.68601967 13.45186909 199.41311207 7.95703125 199.25 C3.9733778 198.74111014 1.71917689 196.67496316 -1.12060547 194.00976562 C-3.82642217 189.67652215 -3.46541764 186.0355793 -3.3203125 181.03125 C-3.30328026 179.5622097 -3.30328026 179.5622097 -3.28590393 178.06349182 C-3.26073417 175.96548387 -3.22720897 173.8675626 -3.18612671 171.76980591 C-3.08336225 166.2727024 -3.05692504 160.77525189 -3.02734375 155.27734375 C-3.02050064 154.19658066 -3.01365753 153.11581757 -3.00660706 152.00230408 C-2.94684143 139.25937896 -3.66460954 126.67555898 -5 114 C-5.07305359 113.30583984 -5.14610718 112.61167969 -5.22137451 111.89648438 C-7.10984738 94.12631247 -9.45606698 76.42598758 -12.10546875 58.75390625 C-12.28722656 57.54056107 -12.46898437 56.32721588 -12.65625 55.07710266 C-13.55827421 49.07763973 -14.47380493 43.08061147 -15.40869141 37.08618164 C-15.74776417 34.87256515 -16.08679601 32.65894239 -16.42578125 30.4453125 C-16.58491501 29.45104752 -16.74404877 28.45678253 -16.90800476 27.43238831 C-19.48112533 10.48961538 -19.48112533 10.48961538 -16.64619446 5.72439575 C-11.74283452 -0.23687566 -7.51790751 -0.65218441 0 0 Z " fill="#8246FB" transform="translate(1100,1159)"/>
<path d="M0 0 C2.2895388 0.76886162 4.57334844 1.55312568 6.8565979 2.3404541 C7.64639038 2.60822662 8.43618286 2.87599915 9.24990845 3.15188599 C24.84060563 8.44040963 40.02686526 14.48192783 55.1065979 21.0904541 C56.54422485 21.71911377 56.54422485 21.71911377 58.01089478 22.36047363 C62.99669253 24.55176911 67.95890259 26.7894955 72.90249634 29.07434082 C75.04138868 30.06039199 77.18655755 31.03148377 79.3331604 32.00061035 C91.24914281 37.43223767 102.68334917 43.69816984 114.1065979 50.0904541 C115.04213501 50.61252441 115.97767212 51.13459473 116.94155884 51.67248535 C149.75371424 70.03180313 149.75371424 70.03180313 152.1065979 77.0904541 C152.22347128 78.56632025 152.28161532 80.04752022 152.2940979 81.5279541 C152.30827759 82.28979004 152.32245728 83.05162598 152.33706665 83.83654785 C152.08272456 86.32392725 151.34676986 87.93853516 150.1065979 90.0904541 C149.4465979 90.0904541 148.7865979 90.0904541 148.1065979 90.0904541 C148.1065979 90.7504541 148.1065979 91.4104541 148.1065979 92.0904541 C142.4453749 94.57344665 139.31666298 95.5730665 133.1065979 94.0904541 C130.25103606 92.70557415 127.63583466 91.01237642 124.9815979 89.2779541 C123.37247587 88.26376389 121.76173491 87.25213872 120.14956665 86.24279785 C119.31731567 85.71927734 118.4850647 85.19575684 117.62759399 84.65637207 C81.73962344 62.36454143 43.00527449 44.66984804 3.0909729 30.97717285 C2.32007828 30.71115265 1.54918365 30.44513245 0.75492859 30.17105103 C-3.05279618 28.8572183 -6.86416363 27.55809307 -10.68661499 26.28771973 C-12.08517036 25.80978675 -13.48353572 25.33129732 -14.88168335 24.85217285 C-16.11442993 24.43927002 -17.34717651 24.02636719 -18.61727905 23.60095215 C-22.77215122 21.68529568 -25.82239479 19.23246872 -27.8934021 15.0904541 C-28.32106747 10.90426811 -28.34043962 7.20804789 -26.7684021 3.2779541 C-18.93645992 -5.85931177 -10.16232998 -3.32505427 0 0 Z " fill="#7C3DF8" transform="translate(445.8934020996094,738.9095458984375)"/>
<path d="M0 0 C1.19439697 0.31469238 2.38879395 0.62938477 3.61938477 0.95361328 C44.89215627 12.107229 84.20410462 32.42370966 117.36181641 59.34326172 C118.87277687 60.54925769 120.4040462 61.72994081 121.94677734 62.89501953 C122.77258301 63.51876465 123.59838867 64.14250977 124.44921875 64.78515625 C125.21065186 65.35242432 125.97208496 65.91969238 126.7565918 66.50415039 C127.3112915 66.99778076 127.86599121 67.49141113 128.4375 68 C128.4375 68.66 128.4375 69.32 128.4375 70 C129.0975 70 129.7575 70 130.4375 70 C133.00732839 75.43617544 134.02760332 79.08154653 132.35546875 84.94921875 C130.7673752 88.49708732 128.7384393 90.04388782 125.4375 92 C122.00346096 93.19907561 118.98683366 93.55195749 115.51318359 92.31445312 C110.69912004 89.88973604 106.8912686 87.0768113 102.9375 83.4375 C70.22544264 54.45275352 26.71364022 35.38979631 -15.36889648 25.12817383 C-21.09573009 23.6673716 -25.46875389 22.2104107 -28.8515625 17.0234375 C-30.14296299 13.34791302 -30.0948946 9.83324112 -29.5625 6 C-23.33776203 -6.92830193 -11.20747519 -2.97065607 0 0 Z " fill="#6C28F1" transform="translate(1161.5625,515)"/>
<path d="M0 0 C23.29069441 -0.5826315 46.65186772 1.0134502 69.67431641 4.50390625 C70.36432739 4.60714203 71.05433838 4.71037781 71.76525879 4.81674194 C93.27900942 8.08329352 93.27900942 8.08329352 97.86181641 12.62890625 C100.38631659 17.2571566 100.62640092 20.90513763 99.73681641 26.06640625 C97.85941417 30.19669116 96.51445185 31.65929674 92.49853516 33.76171875 C88.40335167 35.18206276 86.34666287 35.18740856 82.11181641 34.50390625 C80.71470001 34.29544543 79.31756272 34.08712455 77.92041016 33.87890625 C76.72327393 33.68941406 76.72327393 33.68941406 75.50195312 33.49609375 C71.00359541 32.79707295 66.49574746 32.16758158 61.98730469 31.53735352 C59.50942492 31.19069151 57.03246275 30.83738271 54.55664062 30.47631836 C40.2659564 28.44664679 26.02372125 27.8432816 11.61181641 27.81640625 C10.83021149 27.81274048 10.04860657 27.80907471 9.24331665 27.80529785 C-0.08520864 27.77660953 -9.32490089 28.04685687 -18.61865234 28.87890625 C-19.87826782 28.9913266 -19.87826782 28.9913266 -21.16333008 29.10601807 C-25.20837004 29.47790458 -29.24542654 29.88953689 -33.28125 30.35058594 C-46.69186539 31.78043173 -46.69186539 31.78043173 -53.26318359 27.06640625 C-56.72660367 23.38652242 -56.83004393 19.37207068 -56.68505859 14.5078125 C-55.98389386 10.45014619 -54.29104828 8.81901051 -51.26318359 6.06640625 C-48.0873706 4.13558361 -45.27402375 3.65174733 -41.59912109 3.25 C-40.48617676 3.1260083 -39.37323242 3.0020166 -38.2265625 2.87426758 C-37.04239746 2.75204834 -35.85823242 2.6298291 -34.63818359 2.50390625 C-32.809729 2.30994263 -32.809729 2.30994263 -30.94433594 2.11206055 C-20.6249315 1.04686248 -10.3665183 0.304174 0 0 Z " fill="#8346FB" transform="translate(253.26318359375,893.93359375)"/>
<path d="M0 0 C0.68342468 0.17497513 1.36684937 0.34995026 2.07098389 0.53022766 C4.29771828 1.10431693 6.52002936 1.69361874 8.7421875 2.28515625 C10.31526172 2.698262 11.88834123 3.11134764 13.46142578 3.52441406 C44.85976009 11.82227933 75.9850032 21.61093669 106.1171875 33.78515625 C106.8393042 34.06625244 107.5614209 34.34734863 108.30541992 34.63696289 C113.20685385 36.7085651 115.64975819 39.06259974 118.6171875 43.34765625 C120.21678158 47.46199679 119.74044839 50.88542793 118.6171875 55.09765625 C116.24690388 58.94936714 113.97335603 61.04887267 109.6171875 62.34765625 C103.74700334 62.76421719 99.52160237 61.54147142 94.16015625 59.453125 C92.94892593 58.99842079 92.94892593 58.99842079 91.71322632 58.53453064 C89.97794988 57.88276017 88.24441143 57.22634701 86.51248169 56.56573486 C81.89445618 54.80812775 77.259722 53.0958086 72.625 51.3828125 C71.68977005 51.03667908 70.7545401 50.69054565 69.79096985 50.33392334 C47.1662371 41.99490914 24.18730255 35.19502119 0.8359375 29.22265625 C-20.22087819 23.80972287 -20.22087819 23.80972287 -23.51953125 18.52734375 C-25.43319778 13.69555224 -25.09243075 8.20054834 -23.2578125 3.41015625 C-16.83712201 -3.65260329 -8.37702388 -2.17167915 0 0 Z " fill="#7635F5" transform="translate(446.3828125,548.65234375)"/>
<path d="M0 0 C3.32806948 2.20927165 4.69686404 4.47630481 5.7434845 8.33126831 C5.95808823 9.57014801 6.17269196 10.80902771 6.39379883 12.08544922 C6.51538014 12.7807115 6.63696146 13.47597378 6.76222706 14.19230461 C8.41421275 23.87671355 9.71211673 33.61808284 11.03515625 43.3515625 C11.32210174 45.44427594 11.60928162 47.53695724 11.89668274 49.62960815 C12.49335733 53.98091359 13.08719316 58.33259413 13.67895508 62.68457031 C14.43672908 68.25567314 15.2017717 73.82574999 15.96890545 79.39557076 C16.56117506 83.70171766 17.14961041 88.00838181 17.73688698 92.31521225 C18.01758147 94.37024021 18.29946852 96.42510566 18.58258629 98.47980118 C18.97652319 101.34295189 19.36527999 104.20676002 19.75268555 107.07080078 C19.92795525 108.33321846 19.92795525 108.33321846 20.10676575 109.62113953 C21.62306598 120.94440336 21.62306598 120.94440336 19.0859375 125.40625 C14.7984375 130.91875 14.7984375 130.91875 10.8984375 132.21875 C5.91139705 132.69827312 2.75865595 132.02083205 -1.5234375 129.6796875 C-5.76302013 125.75492536 -6.68519791 120.25220772 -7.390625 114.765625 C-7.49526566 114.02079865 -7.59990631 113.27597229 -7.7077179 112.50857544 C-8.05782694 109.99662481 -8.39242056 107.48287091 -8.7265625 104.96875 C-8.97258225 103.16932316 -9.21943515 101.37001006 -9.46704102 99.57080078 C-10.0267059 95.49287983 -10.57970537 91.41410602 -11.13037109 87.33496094 C-12.02706186 80.72463969 -12.95851134 74.11952594 -13.89422607 67.51464844 C-14.6352727 62.28241825 -15.36795674 57.04902728 -16.09845734 51.81531525 C-16.61880074 48.0887511 -17.142197 44.3626756 -17.6729126 40.63757324 C-18.17897165 37.08263632 -18.67468734 33.52639633 -19.1630764 29.96899033 C-19.43369071 28.0166024 -19.71465785 26.06565821 -19.9959259 24.11477661 C-22.01388369 9.25208706 -22.01388369 9.25208706 -18.2890625 3.34375 C-13.19600534 -1.60379124 -6.64804433 -2.47139195 0 0 Z " fill="#8144FA" transform="translate(1163.1015625,1159.78125)"/>
<path d="M0 0 C1.0969368 0.3147226 1.0969368 0.3147226 2.21603394 0.63580322 C16.57551925 4.77096964 30.7345766 9.48782557 44.875 14.3125 C45.89532318 14.66047638 46.91564636 15.00845276 47.96688843 15.36697388 C50.90792265 16.37284961 53.8470371 17.38408119 56.78515625 18.3984375 C57.65059052 18.69607498 58.51602478 18.99371246 59.40768433 19.30036926 C79.67733798 26.34861065 79.67733798 26.34861065 82.9140625 31.7890625 C84.45379359 35.47102815 84.36307419 39.02230575 83.8125 42.9375 C81.62044622 47.32160756 79.38134617 50.06842657 74.8125 51.9375 C67.99951756 52.50587175 63.25125488 50.88394601 57 48.3125 C45.28092534 43.71822964 33.40395051 39.70746283 21.4375 35.8125 C20.50502441 35.50853302 19.57254883 35.20456604 18.61181641 34.89138794 C6.29615056 30.8899982 -6.03142206 27.10708105 -18.60107422 23.97802734 C-30.47972138 20.99861213 -30.47972138 20.99861213 -34 16.75 C-36.08684441 11.80747378 -36.84082029 7.82486972 -35.0625 2.6875 C-26.412081 -9.9997812 -12.22077156 -3.55130578 0 0 Z " fill="#7433F4" transform="translate(494.1875,498.0625)"/>
<path d="M0 0 C3.40096886 2.6231317 5.05256789 4.94042374 6.29296875 8.98828125 C6.50497014 17.42329623 4.51675594 25.91511416 2.73046875 34.11328125 C2.4672583 35.32467773 2.20404785 36.53607422 1.93286133 37.78417969 C-2.77336382 58.76797418 -9.73424515 79.03779186 -17.70703125 98.98828125 C-18.02027344 99.79023926 -18.33351563 100.59219727 -18.65625 101.41845703 C-23.66449773 114.0784981 -23.66449773 114.0784981 -28.58203125 116.98828125 C-32.99322988 118.49579767 -37.26875515 118.30960009 -41.70703125 116.98828125 C-45.67811826 114.62252729 -47.56028488 112.47101706 -48.70703125 107.98828125 C-49.43220293 101.16629581 -46.99807634 96.12154056 -44.33203125 89.92578125 C-34.34383388 65.76848937 -26.63498483 41.1904455 -21.85546875 15.47265625 C-19.70405782 4.17183837 -19.70405782 4.17183837 -14.70703125 -0.01171875 C-9.81549005 -2.45748935 -4.86624774 -2.88411479 0 0 Z " fill="#8C52FF" transform="translate(685.70703125,1375.01171875)"/>
<path d="M0 0 C5.86778647 4.51148546 6.55863027 10.02989275 7.4921875 16.984375 C7.72237229 18.59710397 7.95327774 20.2097302 8.18481445 21.82226562 C8.36374741 23.08647339 8.36374741 23.08647339 8.54629517 24.3762207 C10.96328688 41.33703683 14.28339403 57.73584776 18.58837891 74.31640625 C19.36325481 77.53611874 19.86657438 80.69514798 20.23046875 83.984375 C18.83634766 84.96277344 18.83634766 84.96277344 17.4140625 85.9609375 C16.16482228 86.84298243 14.9161611 87.72584784 13.66796875 88.609375 C13.02625732 89.0628833 12.3845459 89.5163916 11.72338867 89.98364258 C8.33670101 92.40012486 5.11623773 94.85803782 2.04296875 97.671875 C0.65078125 98.8165625 0.65078125 98.8165625 -0.76953125 99.984375 C-2.25453125 99.489375 -2.25453125 99.489375 -3.76953125 98.984375 C-4.74926758 96.60888672 -4.74926758 96.60888672 -5.6015625 93.4140625 C-5.92229736 92.22288818 -6.24303223 91.03171387 -6.57348633 89.80444336 C-6.91084862 88.48972297 -7.2469978 87.17469078 -7.58203125 85.859375 C-7.75527924 85.19455109 -7.92852722 84.52972717 -8.10702515 83.84475708 C-13.05464311 64.83336842 -16.7713082 45.54111126 -19.64453125 26.109375 C-19.76481689 25.30234131 -19.88510254 24.49530762 -20.0090332 23.66381836 C-21.93374163 9.63923884 -21.93374163 9.63923884 -19.20703125 4.109375 C-14.34737315 -2.12095589 -6.94971183 -3.98879708 0 0 Z " fill="#7737F6" transform="translate(657.76953125,651.015625)"/>
<path d="M0 0 C7.73073057 3.86536528 13.59368302 11.40219478 19.15625 17.875 C21.21201767 20.24435934 23.3231054 22.55785523 25.4375 24.875 C29.12355183 28.96089474 32.62266041 33.14794827 36 37.4921875 C37.38464267 39.22839959 38.82718329 40.91940305 40.3125 42.5703125 C41.055 43.41335938 41.7975 44.25640625 42.5625 45.125 C43.24441406 45.87007812 43.92632813 46.61515625 44.62890625 47.3828125 C48.07318806 53.95736752 43.64440159 63.29934313 41.625 69.9375 C41.32078125 70.99001953 41.0165625 72.04253906 40.703125 73.12695312 C40.40148437 74.12533203 40.09984375 75.12371094 39.7890625 76.15234375 C39.51787598 77.05976318 39.24668945 77.96718262 38.96728516 78.90209961 C38.64808105 79.59440674 38.32887695 80.28671387 38 81 C37.01 81.33 36.02 81.66 35 82 C34.63874023 81.49774902 34.27748047 80.99549805 33.90527344 80.47802734 C26.47557235 70.1829867 18.88513949 60.20005754 10.4765625 50.68701172 C8.9426651 48.93449336 7.43720043 47.1607521 5.9375 45.37890625 C1.30111619 39.878449 -3.35818121 34.53626826 -8.5 29.5 C-13.60360486 24.47012298 -17.50396551 20.45071437 -18.1015625 13.0234375 C-17.87874944 8.58431573 -16.20744012 5.13197511 -13 2.125 C-8.82330391 -0.22439155 -4.69263168 -0.61910437 0 0 Z " fill="#8144FA" transform="translate(607,978)"/>
<path d="M0 0 C8.91 0 17.82 0 27 0 C30.72865597 11.1859679 29.21872166 25.07448535 29.24023438 36.73168945 C29.25005283 39.95484159 29.2812158 43.17738431 29.3125 46.40039062 C29.31902157 48.46353793 29.32427535 50.52668973 29.328125 52.58984375 C29.3404718 53.54616196 29.3528186 54.50248016 29.36553955 55.48777771 C29.34507747 61.61435258 28.6609901 66.14189952 24.3125 70.8125 C19.38278387 73.34397585 15.40987648 73.42296294 10.25 71.875 C6.41055307 69.65993447 3.78280635 67.44431841 2.40014648 63.12695312 C1.96602385 60.81940194 1.91976303 58.75347556 1.97265625 56.40625 C1.98619141 55.47482178 1.99972656 54.54339355 2.01367188 53.58374023 C2.02978516 52.56610596 2.04589844 51.54847168 2.0625 50.5 C2.21586863 33.63072836 1.05235031 16.82820899 0 0 Z " fill="#8A4FFE" transform="translate(667,1286)"/>
<path d="M0 0 C4.6409759 3.3752552 6.62416939 8.50787166 7.69482422 14.07006836 C7.91330662 15.49107364 8.11609237 16.91456397 8.3046875 18.33984375 C8.41475128 19.10623672 8.52481506 19.8726297 8.63821411 20.6622467 C8.86510685 22.27052067 9.08490841 23.87980991 9.29785156 25.48999023 C9.62416871 27.9312808 9.98241306 30.36641022 10.34375 32.80273438 C12.43708305 47.60443305 12.43708305 47.60443305 9.75 55 C6.64026264 58.64066813 3.95620979 60.2462848 -0.6875 61.0625 C-5.69409597 61.35799892 -8.28463934 60.0136741 -12.25 57 C-15.16779085 53.05484919 -15.98514848 49.19036916 -16.63671875 44.42578125 C-16.74345413 43.7019072 -16.85018951 42.97803314 -16.9601593 42.23222351 C-17.18294177 40.70416573 -17.40030287 39.17530884 -17.61254883 37.64575195 C-17.93434036 35.33518722 -18.27529 33.02807641 -18.61914062 30.72070312 C-21.54369931 10.63531341 -21.54369931 10.63531341 -18.5625 4.5625 C-13.10327452 -1.48691202 -7.62208982 -2.34525841 0 0 Z " fill="#7F41F9" transform="translate(1223.25,1151)"/>
<path d="M0 0 C1.56294084 0.97633464 3.14326334 1.92470004 4.72509766 2.87011719 C9.43134891 5.86061945 12.99155678 8.40113719 14.50244141 13.94824219 C14.88386555 17.9238554 14.31659263 21.41185236 12.70556641 25.06542969 C9.16841833 28.60257776 6.27202744 30.24268898 1.32275391 30.53808594 C-5.60758174 30.45958699 -10.47142044 27.14537721 -16.16943359 23.50292969 C-17.18779297 22.89384766 -18.20615234 22.28476562 -19.25537109 21.65722656 C-24.95456667 18.11397668 -28.80154794 15.39066193 -31.29443359 9.06542969 C-31.84468626 5.20129576 -31.17457651 1.65036138 -29.27490234 -1.77050781 C-20.67801541 -12.96010668 -9.52918373 -5.95606608 0 0 Z " fill="#6A26F0" transform="translate(1280.29443359375,500.9345703125)"/>
</svg>
